<svg width="127" height="113" viewBox="0 0 127 113" fill="none" xmlns="http://www.w3.org/2000/svg">
<g clip-path="url(#clip0_12_1143)">
<path d="M61.92 110.75C67.57 110.28 66.94 100.45 67.01 95.52C67.12 88.47 67.22 81.41 67.33 74.36C67.66 52.92 67.53 32.32 67.85 10.88C67.88 8.60999 67.88 6.18999 66.75 4.28999C64.82 1.04999 60.64 0.779993 57.1 0.859993C40.67 1.22999 24.69 0.759993 8.25 1.12999C6.67 1.16999 4.98 1.23999 3.73 2.27999C1.92 3.79999 1.73 6.65999 1.71 9.15999C1.43 39.49 1.15 69.83 0.869998 100.16C0.839998 103.49 0.509998 108.15 3.67 109.62C9.6 112.39 51.9 111.58 61.92 110.75Z" fill="#ACD4F7"/>
<path d="M11.01 11.28L59.79 10.88V101.22L9.53 101.11L11.01 11.28Z" fill="white"/>
<path d="M92.11 33.17C98.7209 33.17 104.08 27.6765 104.08 20.9C104.08 14.1235 98.7209 8.63 92.11 8.63C85.4992 8.63 80.14 14.1235 80.14 20.9C80.14 27.6765 85.4992 33.17 92.11 33.17Z" fill="white"/>
<path d="M92.11 34.02C85.04 34.02 79.29 28.13 79.29 20.9C79.29 13.67 85.04 7.78 92.11 7.78C99.18 7.78 104.93 13.67 104.93 20.9C104.93 28.13 99.18 34.02 92.11 34.02V34.02ZM92.11 9.48C85.98 9.48 80.99 14.6 80.99 20.9C80.99 27.2 85.98 32.32 92.11 32.32C98.24 32.32 103.23 27.2 103.23 20.9C103.23 14.6 98.24 9.48 92.11 9.48V9.48Z" fill="black"/>
<path d="M92.08 27.41C90.05 27.41 88 26.71 86.43 25.42C86.07 25.12 86.01 24.59 86.31 24.23C86.61 23.87 87.14 23.81 87.5 24.11C89.2 25.51 91.59 26.05 93.73 25.52C94.31 25.38 94.69 25.19 94.94 24.94C95.57 24.31 95.36 23.09 94.74 22.42C93.92 21.54 92.59 21.29 91.62 21.24C91.4 21.23 91.17 21.22 90.95 21.22C90.3 21.21 89.64 21.19 88.96 21.02C87.73 20.71 86.79 19.9 86.5 18.89C86.31 18.24 86.39 17.49 86.7 16.78C87.38 15.26 89.01 14.19 90.97 13.97C92.61 13.79 94.24 14.19 95.67 14.54C96.13 14.65 96.4 15.11 96.29 15.57C96.18 16.03 95.72 16.3 95.26 16.19C93.9 15.86 92.5 15.51 91.15 15.66C89.81 15.81 88.67 16.52 88.25 17.47C88.1 17.82 88.05 18.15 88.13 18.42C88.28 18.93 88.89 19.25 89.37 19.37C89.87 19.49 90.41 19.5 90.99 19.52C91.23 19.52 91.48 19.53 91.72 19.54C93.57 19.64 95.05 20.23 96 21.26C97.17 22.52 97.51 24.78 96.15 26.13C95.52 26.76 94.71 27.01 94.15 27.15C93.48 27.32 92.78 27.4 92.09 27.4L92.08 27.41Z" fill="black"/>
<path d="M91.23 30.66C91.23 30.66 91.2 30.66 91.18 30.66C90.71 30.63 90.35 30.23 90.38 29.76L91.42 11.35C91.45 10.88 91.86 10.54 92.32 10.55C92.79 10.58 93.15 10.98 93.12 11.45L92.08 29.86C92.05 30.31 91.68 30.66 91.23 30.66V30.66Z" fill="black"/>
<path d="M33.01 112.38C19.75 112.38 6.54999 111.9 3.30999 110.39C-0.110006 108.8 -0.0400061 104.24 0.00999395 100.92V100.16L0.859994 9.15C0.889994 6.23 1.18999 3.29 3.18999 1.63C4.72999 0.360003 6.75999 0.320003 8.23999 0.280003C16.47 0.100003 24.71 0.120003 32.68 0.150003C40.65 0.170003 48.88 0.200003 57.09 0.0100034C61.05 -0.0699966 65.37 0.310003 67.49 3.85C68.79 6.02 68.75 8.72 68.71 10.89C68.55 21.61 68.5 32.29 68.45 42.62C68.4 52.96 68.35 63.65 68.19 74.37L67.87 95.53C67.87 96.02 67.87 96.57 67.87 97.15C67.87 102.71 67.86 111.11 62.01 111.59C57.4 111.97 45.19 112.38 33.03 112.38H33.01ZM24.47 1.83C19.12 1.83 13.7 1.86 8.27999 1.98C6.67999 2.02 5.26999 2.11 4.27999 2.94C2.80999 4.16 2.57999 6.66 2.55999 9.17L1.70999 100.94C1.65999 103.96 1.59999 107.72 4.02999 108.85C9.62999 111.46 50.96 110.8 61.85 109.9C66.15 109.54 66.15 102.08 66.16 97.15C66.16 96.56 66.16 96.01 66.16 95.51L66.48 74.34C66.64 63.62 66.69 52.94 66.74 42.61C66.79 32.27 66.84 21.58 67 10.86C67.03 8.91 67.07 6.48 66.02 4.72C64.35 1.93 60.58 1.63 57.12 1.71C48.89 1.9 40.64 1.87 32.67 1.85C29.96 1.85 27.22 1.83 24.46 1.83H24.47Z" fill="black"/>
<path d="M86.95 51.66L86.84 64.81L109 64.92L109.43 73.25L125.31 57.68L109.54 43L109 51.45L86.95 51.66Z" fill="white"/>
<path d="M109.43 74.1C109.33 74.1 109.22 74.08 109.12 74.04C108.81 73.92 108.6 73.63 108.58 73.29L108.19 65.75L86.83 65.65C86.6 65.65 86.39 65.56 86.23 65.4C86.07 65.24 85.98 65.02 85.99 64.8L86.1 51.65C86.1 51.19 86.48 50.81 86.94 50.81L108.21 50.6L108.69 42.94C108.71 42.61 108.92 42.33 109.22 42.2C109.53 42.08 109.87 42.14 110.11 42.37L125.88 57.04C126.05 57.2 126.15 57.42 126.15 57.65C126.15 57.88 126.06 58.1 125.9 58.27L110.02 73.85C109.86 74.01 109.64 74.09 109.43 74.09V74.1ZM87.7 63.96L109.01 64.06C109.46 64.06 109.83 64.42 109.85 64.87L110.18 71.32L124.08 57.68L110.27 44.83L109.85 51.49C109.82 51.93 109.46 52.28 109.01 52.29L87.79 52.49L87.7 63.95V63.96Z" fill="black"/>
<path d="M59.79 102.06L9.52001 101.96C9.29001 101.96 9.08001 101.87 8.92001 101.71C8.76001 101.55 8.67001 101.33 8.68001 101.1L10.16 11.26C10.16 10.8 10.54 10.43 11 10.42L59.78 10.02C60 10.02 60.22 10.11 60.38 10.27C60.54 10.43 60.63 10.65 60.63 10.87V101.22C60.63 101.45 60.54 101.66 60.38 101.82C60.22 101.98 60.01 102.07 59.78 102.07L59.79 102.06ZM10.39 100.26L58.95 100.36V11.73L11.85 12.12L10.4 100.27L10.39 100.26Z" fill="black"/>
<path d="M29.6 7.09999C29.17 7.09999 28.79 6.76999 28.76 6.32999C28.72 5.85999 29.06 5.44999 29.53 5.40999C33.66 5.04999 37.85 4.93999 41.99 5.07999C42.46 5.09999 42.83 5.48999 42.81 5.95999C42.79 6.42999 42.42 6.80999 41.93 6.77999C37.86 6.63999 33.74 6.74999 29.68 7.10999C29.65 7.10999 29.63 7.10999 29.6 7.10999V7.09999Z" fill="black"/>
<path d="M14.2 35.67C14.2 35.67 14.1 35.66 14.06 35.63C13.92 35.55 13.88 35.38 13.95 35.24C18.04 27.99 22.87 21.05 28.29 14.6C28.39 14.48 28.57 14.46 28.69 14.57C28.81 14.67 28.82 14.85 28.72 14.97C23.32 21.39 18.51 28.3 14.44 35.52C14.39 35.61 14.29 35.66 14.19 35.66L14.2 35.67Z" fill="black"/>
<path d="M15.12 44.7C15.06 44.7 15.01 44.68 14.96 44.65C14.83 44.56 14.8 44.38 14.89 44.26L35.54 14.62C35.63 14.49 35.81 14.46 35.93 14.55C36.06 14.64 36.09 14.82 36 14.94L15.35 44.58C15.29 44.66 15.21 44.7 15.12 44.7V44.7Z" fill="black"/>
<path d="M13.9 54.14C13.84 54.14 13.78 54.12 13.73 54.09C13.6 54 13.58 53.82 13.67 53.69L42.78 13.95C42.82 13.9 42.86 13.85 42.9 13.8C43 13.68 43.18 13.67 43.3 13.77C43.42 13.87 43.43 14.05 43.33 14.17C43.3 14.21 43.27 14.25 43.24 14.29L14.13 54.02C14.07 54.1 13.99 54.14 13.9 54.14Z" fill="black"/>
<path d="M14.85 65.17C14.8 65.17 14.74 65.15 14.69 65.12C14.56 65.03 14.53 64.86 14.61 64.73C26.31 47.41 38.76 30.28 51.62 13.81C51.72 13.69 51.9 13.67 52.02 13.76C52.14 13.86 52.17 14.03 52.07 14.16C39.21 30.62 26.77 47.74 15.08 65.05C15.03 65.13 14.94 65.17 14.85 65.17V65.17Z" fill="black"/>
<path d="M15.26 74.85C15.2 74.85 15.15 74.83 15.1 74.8C14.97 74.71 14.94 74.53 15.03 74.41C28.15 55.63 41.98 36.96 56.13 18.91C56.23 18.79 56.4 18.77 56.53 18.86C56.65 18.96 56.67 19.13 56.58 19.26C42.43 37.29 28.61 55.96 15.5 74.73C15.44 74.81 15.36 74.85 15.27 74.85H15.26Z" fill="black"/>
<path d="M15.42 86.8C15.37 86.8 15.31 86.79 15.27 86.75C15.14 86.66 15.1 86.49 15.19 86.36C27.84 66.84 41.62 47.73 56.14 29.55C56.24 29.43 56.42 29.41 56.54 29.51C56.66 29.61 56.68 29.79 56.58 29.91C42.07 48.07 28.3 67.17 15.66 86.67C15.61 86.75 15.51 86.8 15.42 86.8V86.8Z" fill="black"/>
<path d="M16.71 96.11C16.66 96.11 16.6 96.09 16.55 96.06C16.42 95.97 16.39 95.8 16.47 95.67C28.3 78.11 41.21 60.99 54.84 44.79C54.94 44.67 55.12 44.65 55.24 44.76C55.36 44.86 55.37 45.04 55.27 45.16C41.65 61.35 28.75 78.45 16.93 95.99C16.88 96.07 16.79 96.11 16.7 96.11H16.71Z" fill="black"/>
<path d="M22.01 96.88C21.95 96.88 21.89 96.86 21.84 96.82C21.71 96.73 21.69 96.55 21.78 96.42C32.39 82.17 43.46 67.98 54.68 54.25C54.78 54.13 54.96 54.11 55.08 54.21C55.2 54.31 55.22 54.49 55.12 54.61C43.9 68.34 32.84 82.52 22.24 96.76C22.18 96.83 22.1 96.87 22.01 96.87V96.88Z" fill="black"/>
<path d="M29.84 96.18C29.78 96.18 29.72 96.16 29.67 96.12C29.54 96.03 29.52 95.85 29.61 95.72C37.58 84.99 46.18 74.54 55.19 64.68C55.3 64.56 55.47 64.56 55.59 64.66C55.71 64.76 55.71 64.94 55.61 65.06C46.62 74.91 38.02 85.34 30.07 96.06C30.01 96.14 29.93 96.17 29.84 96.17V96.18Z" fill="black"/>
<path d="M35.89 96.68C35.83 96.68 35.77 96.66 35.72 96.63C35.59 96.54 35.57 96.36 35.66 96.23C41.54 88.23 47.94 80.49 54.69 73.21C54.8 73.1 54.98 73.09 55.09 73.2C55.2 73.31 55.21 73.49 55.1 73.6C48.36 80.86 41.98 88.59 36.11 96.57C36.05 96.65 35.97 96.69 35.88 96.69L35.89 96.68Z" fill="black"/>
<path d="M42.45 96.65C42.38 96.65 42.32 96.63 42.26 96.58C42.14 96.48 42.13 96.3 42.24 96.18L54.72 82.16C54.82 82.04 55 82.03 55.12 82.14C55.24 82.24 55.25 82.42 55.14 82.54L42.66 96.56C42.6 96.62 42.53 96.66 42.45 96.66V96.65Z" fill="black"/>
<path d="M48.86 96.88C48.79 96.88 48.72 96.86 48.67 96.81C48.55 96.7 48.55 96.53 48.65 96.41L54.62 89.91C54.73 89.8 54.91 89.79 55.02 89.89C55.14 90 55.14 90.17 55.04 90.29L49.07 96.79C49.01 96.85 48.94 96.88 48.86 96.88V96.88Z" fill="black"/>
<path d="M13.9 23.65C13.85 23.65 13.8 23.64 13.75 23.61C13.62 23.53 13.58 23.35 13.66 23.22C15.62 20.09 18.14 17.18 21.17 14.57C21.29 14.47 21.47 14.48 21.57 14.6C21.67 14.72 21.66 14.9 21.54 15C18.56 17.57 16.07 20.44 14.14 23.52C14.09 23.61 13.99 23.65 13.9 23.65V23.65Z" fill="black"/>
<g opacity="0.13">
<path d="M103.81 21.5C103.29 20.56 101.91 20.39 101.17 21.16C100.65 21.69 100.62 22.5 100.29 23.15C100.35 23.01 100.56 22.52 100.38 22.92C100.03 23.7 99.57 24.42 99.07 25.11C98.73 25.52 98.33 25.87 97.91 26.2C96.6 27.2 94.23 28.88 91.92 29.18C91.63 29.21 91.11 29.28 90.88 29.3C89.66 29.54 88.15 29.21 87.17 30.1C85.97 31.22 86.87 33.43 88.53 33.37C92.38 32.91 94.2 33.43 97.78 31.13C98.94 30.37 100.15 29.62 101.1 28.6C102.15 27.48 102.81 26.08 103.37 24.67C103.31 24.81 103.25 24.95 103.19 25.09C103.58 24 104.42 22.64 103.81 21.5V21.5Z" fill="black"/>
</g>
<g opacity="0.13">
<path d="M124.94 57.43C124.96 56.24 123.57 55.43 122.56 56.06C122.34 56.18 122.17 56.36 122.03 56.56C121.94 56.65 121.86 56.73 121.77 56.82C120.69 57.63 119.66 58.52 118.7 59.46C116.64 61.62 114.46 63.68 112.39 65.84C112.36 65.09 112.23 64.31 111.91 63.49C111.66 62.3 110.72 61.85 109.86 61.97C108.81 61.29 107.24 61.46 106.04 61.36C101.9 61.23 97.75 61.36 93.61 61.29C92.53 61.31 91.45 61.37 90.38 61.29C89.63 61.31 88.8 61.07 88.09 61.4C86.19 62.13 86.79 65.05 88.82 65.03C93.1 65.58 97.38 65.22 101.67 65.12C103.45 65.19 105.22 65.06 107 65.06C107.54 65 108.1 65.15 108.65 65.16C108.67 65.23 108.68 65.3 108.69 65.36C108.69 65.4 108.69 65.46 108.69 65.53C108.63 66.58 108.37 66.95 108.18 69.32C107.91 70.99 109.13 71.9 110.29 71.83C110.84 72.03 111.5 71.96 112.07 71.42C113.58 69.57 115.32 67.94 116.91 66.17C118.57 64.34 120.2 62.48 121.96 60.75C122.66 60.08 123.38 59.43 124.12 58.8C124.6 58.5 124.95 57.99 124.94 57.41V57.43Z" fill="black"/>
</g>
<g opacity="0.13">
<path d="M60.51 11.85C60.13 10.58 58.95 10.43 57.81 10.64C53.5 10.94 49.18 10.89 44.86 11C38.57 11.38 32.28 11.7 25.97 11.68C23.88 11.63 21.8 11.8 19.71 11.69C19.86 11.71 20.01 11.73 20.16 11.75C17.75 11.49 15.32 11.39 12.89 11.3C11.93 10.88 10.58 11.35 10.53 12.78C10.64 18.15 10.09 23.49 10 28.86C9.79001 39.91 9.69001 50.95 9.42001 62C9.22001 65.43 9.65001 67.7 9.56001 71.94C9.58001 74.87 9.38001 77.79 9.28001 80.72C9.39001 83.5 9.37001 83.82 9.42001 86.42C9.51001 87.3 9.72001 88.16 9.91001 89.03C9.98001 91.12 9.82001 90.79 9.69001 91.91C9.60001 92.72 9.28001 94.32 9.09001 97.86C8.90001 99.81 8.49001 101.86 10.82 102.12C12.47 102 12.73 100.75 12.68 99.34C12.75 98 12.8 96.66 12.77 95.33C12.72 93.64 12.94 91.97 12.96 90.28C12.91 88.56 12.73 86.3 12.97 83.63C12.97 83.61 12.97 83.6 12.97 83.59C13.07 82.43 12.99 81.28 13.01 80.12C13.16 77.39 13.27 74.67 13.27 71.94C13.39 67.42 13.2 65.22 13.03 61.35C13.14 57.08 13.02 52.81 13.05 48.54C13.26 43.07 13.07 37.58 13.27 32.11C13.39 26.36 13.67 20.62 13.78 14.88C17 14.94 20.22 15.19 23.44 15.04C25.89 14.91 28.35 15.04 30.8 14.95C33.61 14.86 36.41 14.66 39.22 14.66C43.85 14.59 48.48 14.52 53.11 14.48C55.12 14.42 57.91 14.05 58.54 14.08C59.76 14.24 60.82 13.04 60.48 11.85H60.51Z" fill="black"/>
</g>
</g>
<defs>
<clipPath id="clip0_12_1143">
<rect width="126.15" height="112.38" fill="white"/>
</clipPath>
</defs>
</svg>
