<svg width="154" height="118" viewBox="0 0 154 118" fill="none" xmlns="http://www.w3.org/2000/svg">
<path d="M0.85 107.26C0.38 107.26 0 106.88 0 106.42C0 105.95 0.38 105.57 0.84 105.57L152.27 104.79C152.74 104.79 153.12 105.17 153.12 105.63C153.12 106.1 152.74 106.48 152.28 106.48L0.85 107.26Z" fill="black"/>
<path d="M84.63 117.3H84.61C62.64 116.79 40.36 116.74 18.4 117.15H18.38C17.92 117.15 17.54 116.78 17.53 116.32C17.53 115.85 17.89 115.46 18.36 115.46C40.35 115.05 62.65 115.11 84.64 115.61C85.11 115.62 85.48 116.01 85.47 116.48C85.46 116.94 85.08 117.31 84.62 117.31L84.63 117.3Z" fill="black"/>
<path d="M32.09 94.1099C28.82 91.7699 23.91 88.9899 20.64 86.6499C28.78 74.5799 49.83 43.0299 57.73 30.8999C56.28 29.9799 51.4 26.7699 51.4 26.7699L77.93 14.0899L74.41 41.7699C74.41 41.7699 69.84 39.0399 69.2 38.3699C61.17 50.1099 41.34 79.9099 32.08 94.1099H32.09Z" fill="white"/>
<path d="M32.09 94.9599C31.91 94.9599 31.74 94.9099 31.6 94.7999C29.99 93.6499 27.92 92.3499 25.92 91.0999C23.9 89.8299 21.81 88.5199 20.15 87.3399C19.78 87.0699 19.68 86.5599 19.94 86.1699C28.28 73.8099 48.48 43.5099 56.56 31.1399C54.68 29.9299 51.12 27.5799 50.94 27.4699C50.68 27.2999 50.54 27.0099 50.56 26.6999C50.58 26.3899 50.76 26.1199 51.04 25.9899L77.57 13.3099C77.85 13.1799 78.18 13.2099 78.43 13.3899C78.68 13.5699 78.81 13.8799 78.77 14.1899L75.25 41.8699C75.21 42.1499 75.04 42.3999 74.78 42.5299C74.52 42.6499 74.22 42.6399 73.97 42.4999C73.35 42.1299 70.78 40.5799 69.38 39.5999C61.2 51.5999 42.06 80.3499 32.78 94.5799C32.65 94.7699 32.45 94.9099 32.23 94.9499C32.18 94.9499 32.13 94.9599 32.07 94.9599H32.09ZM21.81 86.4299C23.3 87.4599 25.08 88.5699 26.82 89.6599C28.56 90.7499 30.34 91.8699 31.86 92.9099C41.51 78.1299 60.77 49.2199 68.51 37.8899C68.65 37.6799 68.89 37.5399 69.14 37.5199C69.39 37.4999 69.64 37.5899 69.82 37.7799C70.12 38.0899 71.89 39.2299 73.75 40.3699L76.9 15.5199L53.13 26.8799C54.68 27.8999 57.22 29.5599 58.19 30.1699C58.38 30.2899 58.52 30.4799 58.57 30.7099C58.62 30.9299 58.57 31.1599 58.45 31.3499C50.85 43.0199 30.6 73.3999 21.82 86.4299H21.81Z" fill="black"/>
<path d="M111.46 94.1099C108.19 91.7699 103.28 88.9899 100.01 86.6499C108.15 74.5799 115.16 64.8199 123.06 52.6799C121.61 51.7599 116.73 48.5499 116.73 48.5499L143.26 35.8699L139.74 63.5499C139.74 63.5499 135.17 60.8199 134.53 60.1499C126.5 71.8899 120.71 79.8999 111.45 94.0999L111.46 94.1099Z" fill="#ACD4F7"/>
<path d="M111.46 94.9599C111.28 94.9599 111.11 94.9099 110.97 94.7999C109.36 93.6499 107.29 92.3499 105.29 91.0999C103.27 89.8299 101.18 88.5199 99.52 87.3399C99.15 87.0699 99.05 86.5599 99.31 86.1699C102.4 81.5799 105.36 77.2999 108.21 73.1499C112.81 66.4699 117.17 60.1399 121.88 52.9299C120 51.7199 116.44 49.3699 116.26 49.2599C116 49.0899 115.86 48.7999 115.88 48.4899C115.9 48.1799 116.08 47.9099 116.36 47.7799L142.89 35.0999C143.17 34.9699 143.5 34.9899 143.75 35.1799C144 35.3599 144.13 35.6699 144.09 35.9799L140.57 63.6599C140.53 63.9399 140.36 64.1899 140.1 64.3199C139.84 64.4499 139.54 64.4299 139.29 64.2899C138.67 63.9199 136.1 62.3699 134.7 61.3899C132.49 64.6099 130.45 67.5599 128.45 70.4499C123.4 77.7399 118.63 84.6299 112.15 94.5799C112.02 94.7699 111.82 94.9099 111.6 94.9499C111.55 94.9499 111.5 94.9599 111.44 94.9599H111.46ZM101.18 86.4299C102.67 87.4599 104.45 88.5699 106.19 89.6599C107.93 90.7499 109.71 91.8699 111.23 92.9099C117.48 83.3399 122.15 76.5999 127.08 69.4799C129.23 66.3699 131.43 63.1899 133.84 59.6799C133.98 59.4699 134.22 59.3299 134.47 59.3099C134.72 59.2999 134.97 59.3799 135.15 59.5699C135.45 59.8799 137.22 61.0199 139.08 62.1599L142.24 37.3099L118.47 48.6699C120.02 49.6899 122.56 51.3499 123.53 51.9599C123.72 52.0799 123.86 52.2699 123.91 52.4999C123.96 52.7199 123.91 52.9499 123.79 53.1399C118.88 60.6699 114.39 67.1999 109.62 74.1099C106.91 78.0399 104.11 82.0999 101.19 86.4199L101.18 86.4299Z" fill="black"/>
<path d="M72.82 94.4199L59.49 85.7299C59.49 85.7299 92.78 34.1299 101.92 20.0899C100.23 19.0199 94.57 15.2599 94.57 15.2599L125.24 0.849899L121.25 32.9299C121.25 32.9299 116.15 29.4099 115.4 28.6299C106.11 42.2099 72.83 94.4199 72.83 94.4199H72.82Z" fill="white"/>
<path d="M72.82 95.2699C72.66 95.2699 72.5 95.2199 72.36 95.1299L59.03 86.4399C58.64 86.1799 58.53 85.6599 58.78 85.2699C59.11 84.7599 91.1 35.1799 100.75 20.3499C98.6 18.9599 94.31 16.0999 94.1 15.9699C93.85 15.7999 93.7 15.5099 93.72 15.1999C93.74 14.8899 93.93 14.6199 94.21 14.4899L124.88 0.0799024C125.16 -0.0500976 125.49 -0.0200977 125.74 0.159902C125.99 0.339902 126.12 0.639902 126.08 0.949902L122.09 33.0299C122.05 33.3199 121.87 33.5799 121.59 33.6999C121.32 33.8199 121 33.7899 120.76 33.6199C120.33 33.3199 117.15 31.1199 115.56 29.8799C105.71 44.3999 73.85 94.3599 73.53 94.8699C73.41 95.0599 73.22 95.1999 72.99 95.2399C72.93 95.2499 72.87 95.2599 72.81 95.2599L72.82 95.2699ZM60.66 85.4799L72.57 93.2399C76.62 86.8899 106.1 40.7199 114.7 28.1499C114.84 27.9399 115.08 27.7999 115.33 27.7799C115.59 27.7599 115.83 27.8499 116.01 28.0399C116.43 28.4699 118.7 30.1099 120.58 31.4299L124.21 2.2699L96.3 15.3799C98.07 16.5499 101.21 18.6299 102.38 19.3699C102.57 19.4899 102.71 19.6799 102.76 19.9099C102.81 20.1299 102.76 20.3599 102.64 20.5499C94.19 33.5299 64.7 79.2099 60.66 85.4799V85.4799Z" fill="black"/>
<path d="M25.22 86.9699C25.1 86.9699 24.99 86.8899 24.95 86.7699L24.18 84.1899C24.14 84.0399 24.22 83.8799 24.37 83.8399C24.52 83.7999 24.68 83.8799 24.72 84.0299L25.49 86.6099C25.53 86.7599 25.45 86.9199 25.3 86.9599C25.27 86.9599 25.25 86.9699 25.22 86.9699V86.9699Z" fill="black"/>
<path d="M29.81 90.1599C29.69 90.1599 29.57 90.0799 29.54 89.9599C28.66 86.9599 27.8 83.8999 26.99 80.8599C26.95 80.7099 27.04 80.5499 27.19 80.5099C27.34 80.4699 27.5 80.5599 27.54 80.7099C28.35 83.7499 29.21 86.7999 30.09 89.7899C30.13 89.9399 30.05 90.0999 29.9 90.1399C29.87 90.1399 29.85 90.1499 29.82 90.1499L29.81 90.1599Z" fill="black"/>
<path d="M33.55 88.0499C33.43 88.0499 33.32 87.9699 33.28 87.8599C32.04 84.1399 30.84 80.3799 29.7 76.6599C29.65 76.5099 29.74 76.3499 29.89 76.3099C30.04 76.2599 30.2 76.3499 30.24 76.4999C31.38 80.2099 32.58 83.9699 33.82 87.6799C33.87 87.8299 33.79 87.9899 33.64 88.0399C33.61 88.0499 33.58 88.0499 33.55 88.0499Z" fill="black"/>
<path d="M36.23 84.1799C36.11 84.1799 35.99 84.0999 35.96 83.9699C34.94 80.1699 33.81 76.3499 32.6 72.5999C32.55 72.4499 32.63 72.2899 32.78 72.2399C32.93 72.1899 33.09 72.2699 33.14 72.4199C34.35 76.1699 35.49 80.0099 36.51 83.8099C36.55 83.9599 36.46 84.1199 36.31 84.1599C36.29 84.1599 36.26 84.1699 36.24 84.1699L36.23 84.1799Z" fill="black"/>
<path d="M39.84 78.2099C39.72 78.2099 39.6 78.1299 39.57 78.0099C38.58 74.6199 37.43 71.2399 36.15 67.9399C36.09 67.7899 36.17 67.6299 36.31 67.5699C36.46 67.5099 36.62 67.5899 36.68 67.7299C37.96 71.0399 39.12 74.4399 40.12 77.8399C40.16 77.9899 40.08 78.1499 39.93 78.1899C39.9 78.1899 39.88 78.1999 39.85 78.1999L39.84 78.2099Z" fill="black"/>
<path d="M43.38 72.7999C43.26 72.7999 43.16 72.7299 43.11 72.6099L39.57 62.8799C39.52 62.7299 39.59 62.5699 39.74 62.5199C39.89 62.4699 40.05 62.5399 40.1 62.6899L43.64 72.4199C43.69 72.5699 43.62 72.7299 43.47 72.7799C43.44 72.7899 43.41 72.7999 43.37 72.7999H43.38Z" fill="black"/>
<path d="M46.81 67.0399C46.69 67.0399 46.59 66.9699 46.54 66.8499L43.15 57.5899C43.1 57.4399 43.17 57.2799 43.32 57.2299C43.47 57.1799 43.63 57.2499 43.68 57.3999L47.07 66.6599C47.12 66.8099 47.05 66.9699 46.9 67.0199C46.87 67.0299 46.84 67.0399 46.8 67.0399H46.81Z" fill="black"/>
<path d="M49.97 63.2899C49.85 63.2899 49.74 63.2199 49.7 63.0999C48.59 59.8499 47.54 56.5199 46.58 53.2099C46.54 53.0599 46.62 52.8999 46.77 52.8599C46.92 52.8199 47.08 52.8999 47.12 53.0499C48.08 56.3499 49.12 59.6699 50.23 62.9099C50.28 63.0599 50.2 63.2199 50.05 63.2699C50.02 63.2799 49.99 63.2899 49.96 63.2899H49.97Z" fill="black"/>
<path d="M53.14 57.7399C53.03 57.7399 52.92 57.6699 52.88 57.5599C51.67 54.6099 50.56 51.5799 49.58 48.5499C49.53 48.3999 49.61 48.2399 49.76 48.1899C49.91 48.1399 50.07 48.2199 50.12 48.3699C51.1 51.3899 52.21 54.3999 53.41 57.3399C53.47 57.4799 53.41 57.6499 53.26 57.7099C53.22 57.7199 53.19 57.7299 53.15 57.7299L53.14 57.7399Z" fill="black"/>
<path d="M56.17 52.7099C56.05 52.7099 55.94 52.6399 55.9 52.5199L52.88 43.6699C52.83 43.5199 52.91 43.3599 53.06 43.3099C53.21 43.2599 53.37 43.3399 53.42 43.4899L56.44 52.3399C56.49 52.4899 56.41 52.6499 56.26 52.6999C56.23 52.7099 56.2 52.7199 56.17 52.7199V52.7099Z" fill="black"/>
<path d="M59.35 48.3699C59.23 48.3699 59.12 48.2999 59.08 48.1799L55.94 39.1199C55.89 38.9699 55.97 38.8099 56.11 38.7599C56.26 38.7099 56.42 38.7899 56.47 38.9299L59.61 47.9899C59.66 48.1399 59.58 48.2999 59.44 48.3499C59.41 48.3599 59.38 48.3699 59.35 48.3699V48.3699Z" fill="black"/>
<path d="M62.45 43.5599C62.33 43.5599 62.22 43.4799 62.18 43.3599C61.25 40.2199 60.2 37.0699 59.06 33.9899C59.01 33.8399 59.08 33.6799 59.23 33.6299C59.37 33.5699 59.54 33.6499 59.59 33.7999C60.74 36.8899 61.79 40.0599 62.72 43.2099C62.76 43.3599 62.68 43.5199 62.53 43.5599C62.5 43.5599 62.48 43.5699 62.45 43.5699V43.5599Z" fill="black"/>
<path d="M65.55 39.6999C65.43 39.6999 65.31 39.6199 65.28 39.4899C63.92 34.5899 62.59 29.6199 61.32 24.7199C61.28 24.5699 61.37 24.4099 61.52 24.3799C61.67 24.3399 61.83 24.4299 61.86 24.5799C63.12 29.4799 64.45 34.4499 65.81 39.3399C65.85 39.4899 65.76 39.6499 65.61 39.6899C65.58 39.6899 65.56 39.6999 65.53 39.6999H65.55Z" fill="black"/>
<path d="M68.84 35.1599C68.72 35.1599 68.6 35.0799 68.57 34.9499L65.21 22.7399C65.17 22.5899 65.26 22.4299 65.41 22.3899C65.56 22.3499 65.72 22.4399 65.76 22.5899L69.12 34.7999C69.16 34.9499 69.07 35.1099 68.92 35.1499C68.89 35.1499 68.87 35.1499 68.84 35.1499V35.1599Z" fill="black"/>
<path d="M72.61 34.0199C72.48 34.0199 72.36 33.9299 72.33 33.7899C71.48 29.3099 70.48 24.7999 69.36 20.3699C69.32 20.2199 69.41 20.0599 69.56 20.0299C69.71 19.9899 69.86 20.0799 69.9 20.2299C71.03 24.6599 72.03 29.1899 72.88 33.6799C72.91 33.8299 72.81 33.9799 72.65 34.0099C72.63 34.0099 72.61 34.0099 72.6 34.0099L72.61 34.0199Z" fill="black"/>
<path d="M74.56 25.0899C74.44 25.0899 74.32 25.0099 74.29 24.8799C73.81 23.0999 73.4 21.2799 73.08 19.4699C73.05 19.3199 73.16 19.1699 73.31 19.1399C73.46 19.1099 73.61 19.2099 73.64 19.3699C73.96 21.1699 74.36 22.9699 74.84 24.7299C74.88 24.8799 74.79 25.0399 74.64 25.0799C74.62 25.0799 74.59 25.0799 74.57 25.0799L74.56 25.0899Z" fill="black"/>
<path d="M58.2 28.6199C58.07 28.6199 57.96 28.5399 57.93 28.4099L57.48 26.6499C57.44 26.4999 57.53 26.3399 57.68 26.3099C57.83 26.2699 57.99 26.3599 58.02 26.5099L58.47 28.2699C58.51 28.4199 58.42 28.5799 58.27 28.6099C58.25 28.6099 58.22 28.6099 58.2 28.6099V28.6199Z" fill="black"/>
<g opacity="0.13">
<path d="M74.21 37.9599C73.1 36.6199 71.67 35.5799 70.23 34.6099C69.44 34.1899 68.58 33.5099 67.65 33.6499C66.73 33.7399 66.22 34.4399 66.13 35.1899C65.64 35.5899 65.22 36.1699 64.82 36.7699C63.78 38.0499 63.39 38.6399 61.91 40.7399C58.86 44.9799 56.16 49.4399 53.27 53.7899C48.38 61.0899 43.66 68.4999 38.92 75.8899C36.83 79.0999 34.53 82.1699 32.51 85.4299C31.7 86.6099 30.91 87.7999 30.04 88.9399C30.16 88.7899 30.27 88.6399 30.39 88.4899C29.94 89.1599 29.27 89.7099 28.96 90.4599C27.95 92.6499 30.91 94.6499 32.61 92.9199C35.1 89.8799 37.13 86.5299 39.07 83.1299C40.62 80.5299 42.32 78.0199 43.82 75.3799C45.31 73.0299 46.97 70.7799 48.56 68.4999C49.88 66.4999 51.08 64.4299 52.4 62.4399C57.15 55.4299 61.95 48.4499 66.84 41.5399C67.45 40.5999 68.08 39.6699 68.76 38.7799C68.93 38.5799 69.11 38.3699 69.25 38.1599C69.44 38.2799 69.65 38.4199 69.75 38.4799C69.79 38.5099 69.83 38.5399 69.87 38.5799C70.78 39.2999 71.42 40.3799 72.48 40.8899C74.28 41.6799 75.69 39.2399 74.22 37.9799L74.21 37.9599Z" fill="black"/>
</g>
<g opacity="0.13">
<path d="M121.91 29.7799C121.26 28.2499 120.93 28.3099 120.37 27.8199C118.98 26.8599 117.61 25.8599 116.01 25.2599C115.32 24.9799 114.63 24.4899 113.86 24.7299C113.65 24.7799 113.47 24.8699 113.31 24.9799C112.5 25.1699 111.97 25.9099 111.46 26.5499C110.85 27.3399 111.06 27.0799 109.63 28.8799C107.37 31.9499 102.59 38.3299 99.67 43.0099C95.63 48.6199 91.96 54.4599 88.4 60.3799C86.76 63.1399 84.88 65.7599 83.22 68.5099C81.21 71.7999 79.41 75.2199 77.55 78.5899C75.83 81.6999 73.96 84.7399 72.11 87.7699C71.67 88.4699 71.2 89.1499 70.73 89.8299C70.44 90.2799 70.01 90.6899 70.01 91.2499C69.81 92.3999 70.68 93.2099 71.64 93.3499C72.24 93.6799 73.02 93.6899 73.7 93.0499C75.95 90.3899 77.75 87.4299 79.56 84.4699C83.79 77.9599 87.17 70.9299 91.16 64.2799C94.91 58.0199 98.97 51.9499 103.05 45.8999C103.05 45.8999 103.05 45.9099 103.04 45.9199C103.04 45.9099 103.06 45.8999 103.07 45.8799C104.7 42.8299 106.83 40.1099 108.59 37.1399C109.03 36.4099 109.53 35.7099 110 34.9999C110.79 33.9399 111.62 32.7699 112.29 31.6699C112.54 31.2799 113.25 30.3399 113.27 30.3099C114.08 29.2699 114.17 29.0899 114.69 28.4999C116.26 29.2099 116.98 29.6799 118.17 30.9199C118.24 31.0199 118.3 31.1299 118.35 31.2399C118.35 31.2399 118.35 31.2399 118.35 31.2299C118.65 31.7599 119.18 32.1699 119.79 32.1999C121.11 32.4699 122.33 31.0399 121.93 29.7599L121.91 29.7799Z" fill="black"/>
</g>
<g opacity="0.13">
<path d="M140.36 59.6099C140 58.5399 138.85 57.9799 137.97 57.3599C136.81 56.7399 135.69 55.8899 134.42 55.5699C134.1 55.5199 133.82 55.5499 133.56 55.6399C133.37 55.6399 133.17 55.6399 132.96 55.6899C132.48 55.8599 132.05 56.1299 131.8 56.5799C131.8 56.5799 131.81 56.5699 131.82 56.5599C131.47 56.9899 131.16 57.4499 130.9 57.9399C128.06 62.3299 125.18 66.6899 122.2 70.9799C120.02 74.7899 117.61 78.4599 115.06 82.0399C113.44 84.4299 111.6 86.6499 109.99 89.0499C109.53 89.8799 108.68 90.5799 108.56 91.5499C108.19 93.6999 111.24 94.7499 112.32 92.8499C113.89 90.4099 115.63 88.0799 117.27 85.6799C119.3 82.4999 121.3 79.2999 123.24 76.0599C125.11 73.2399 126.45 71.6999 128.54 68.2499C130.44 65.6499 132.46 62.3099 133.93 60.2299C134.04 60.2799 134.16 60.3299 134.31 60.4099C134.58 60.4899 135.36 60.9999 135.68 61.2099C136.16 61.6199 136.55 62.1399 136.97 62.6099C137.59 63.2499 138.73 63.3499 139.4 62.7499C140.04 62.2399 140.21 61.6499 140.1 61.0699C140.38 60.6799 140.5 60.1699 140.34 59.6199L140.36 59.6099Z" fill="black"/>
</g>
</svg>
