<svg width="136" height="152" viewBox="0 0 136 152" fill="none" xmlns="http://www.w3.org/2000/svg">
<g clip-path="url(#clip0_12_39)">
<path d="M53.53 126.29C53.3 119.5 51.59 112.76 48.56 106.68C43.52 96.57 35 88.48 30.19 78.26C24.56 66.29 26.47 51.73 32.8 42.53C41.65 29.68 57.56 24.05 69.68 24.75C77.32 25.19 99.79 27.66 106.8 50.25C113.83 72.92 97 89.4 90.8 98.98C86.54 105.58 81.23 111.95 80.53 119.77C80.37 121.57 80.38 123.49 79.37 124.99C78.14 126.81 75.79 127.42 73.65 127.9C69.75 128.77 65.74 129.65 61.8 129.02C57.86 128.39 53.94 125.87 53.54 126.29H53.53Z" fill="white"/>
<path d="M64.6 130.1C63.62 130.1 62.63 130.03 61.65 129.88C59.27 129.5 56.89 128.46 55.32 127.77C54.74 127.52 54.04 127.21 53.74 127.13C53.57 127.17 53.38 127.17 53.21 127.1C52.89 126.97 52.67 126.67 52.66 126.32C52.44 119.68 50.75 113.02 47.78 107.07C45.37 102.24 42.08 97.77 38.9 93.45C35.47 88.79 31.92 83.98 29.41 78.63C24.03 67.19 25.13 52.15 32.1 42.04C41.4 28.53 57.7 23.18 69.74 23.88C81.07 24.53 101.06 28.79 107.64 49.99C113.66 69.38 102.57 84.36 95.24 94.26C93.85 96.14 92.54 97.91 91.55 99.45C90.79 100.62 90 101.8 89.22 102.94C85.66 108.2 81.97 113.63 81.41 119.85C81.39 120.11 81.37 120.37 81.35 120.64C81.22 122.3 81.09 124.01 80.1 125.48C78.72 127.52 76.25 128.22 73.85 128.76C70.98 129.4 67.81 130.11 64.62 130.11L64.6 130.1ZM54.36 125.5C54.79 125.64 55.32 125.87 56.02 126.17C57.6 126.86 59.77 127.81 61.93 128.15C65.76 128.77 69.67 127.89 73.46 127.04C75.61 126.56 77.63 126 78.65 124.49C79.38 123.41 79.49 121.99 79.6 120.5C79.62 120.23 79.64 119.96 79.67 119.69C80.27 113.02 84.09 107.4 87.77 101.96C88.54 100.83 89.33 99.66 90.08 98.51C91.1 96.93 92.43 95.13 93.84 93.23C100.97 83.61 111.74 69.06 105.98 50.51C99.71 30.32 80.52 26.25 69.64 25.62C58.46 24.98 42.4 30.15 33.53 43.03C26.9 52.66 25.86 66.99 30.99 77.9C33.43 83.09 36.93 87.84 40.31 92.42C43.54 96.8 46.87 101.33 49.35 106.29C52.31 112.23 54.05 118.86 54.38 125.5H54.36Z" fill="black"/>
<path d="M92.24 66.57C89.76 65.29 88.11 65.52 86.08 64.55C85.53 62.45 84.3 58.9 83.66 56.8C85.35 54.6 86.33 53.97 87.81 52.1C87.76 51.81 87.53 51.56 87.29 51.31C86.73 50.71 86.16 50.12 85.58 49.54C83.44 47.4 81.08 45.51 78.54 43.9C76.88 46.11 75.55 48.22 74.23 50.32C71.6 49.83 68.91 49.71 66.25 49.96C65.51 47.56 64.61 45.21 63.58 42.93C60.21 44.1 56.87 45.7 53.99 47.92C54.96 50.13 55.8 51.43 56.97 53.3C55.27 55.57 53.6 57.7 52.33 60.02C49.72 59.15 47.65 58.89 45.2 58.04C43.48 62.01 42.59 66.26 43.33 70.35C45.92 70.2 47.38 69.83 49.73 69.56C50.55 72.15 51.87 74.67 53.41 76.97C51.86 79.08 51.1 80.83 49.7 82.49C51.6 85.36 54.27 87.64 57.31 89.14C58.63 87.08 59.48 85.81 60.7 84.01C63.07 84.46 66.09 85.12 68.51 84.96C69.67 87.14 70.03 88.4 70.67 90.54C74.43 90.45 78.11 89.51 81.55 87.99C80.77 85.52 80.74 84.03 79.79 81.95C81.62 80.07 83.33 77.6 84.35 75.45C86.81 75.42 87.87 75.74 90.06 76C91.52 72.91 92.15 69.75 92.22 66.57H92.24ZM72.11 73.61C70.61 74.48 69.1 75.28 64.43 73.38C62.6 72.63 58.24 68.86 61.58 62.53C62.64 60.51 64.79 59.04 67.07 58.97C69.34 58.9 71.13 59.14 72.65 60.02C75.01 61.4 76.44 64.19 76.29 66.92C76.14 69.65 74.48 72.22 72.12 73.6L72.11 73.61Z" fill="#ACD4F7"/>
<path d="M70.69 91.4C70.31 91.4 69.97 91.15 69.86 90.78L69.76 90.46C69.22 88.68 68.88 87.55 68.01 85.84C65.85 85.87 63.34 85.39 61.3 84.99L61.12 84.95C60.15 86.39 59.32 87.64 58.06 89.59C57.82 89.96 57.34 90.1 56.94 89.9C53.69 88.29 50.94 85.89 48.99 82.95C48.78 82.63 48.8 82.2 49.05 81.91C49.77 81.06 50.33 80.14 50.92 79.17C51.36 78.46 51.81 77.72 52.36 76.93C50.96 74.77 49.88 72.6 49.13 70.49C48.54 70.57 47.99 70.65 47.46 70.73C46.21 70.92 45.03 71.1 43.39 71.2C42.96 71.22 42.56 70.92 42.48 70.49C41.77 66.57 42.42 62.26 44.41 57.68C44.59 57.26 45.06 57.06 45.49 57.2C46.69 57.61 47.79 57.88 48.96 58.17C49.9 58.4 50.88 58.64 51.93 58.96C53 57.13 54.28 55.42 55.63 53.63L55.92 53.24C54.92 51.64 54.1 50.31 53.2 48.26C53.04 47.89 53.15 47.47 53.46 47.22C56.14 45.15 59.45 43.42 63.3 42.1C63.72 41.95 64.19 42.15 64.38 42.56C65.33 44.66 66.17 46.83 66.88 49.03C69.2 48.87 71.52 48.98 73.81 49.36C75.02 47.43 76.29 45.44 77.85 43.37C78.12 43.01 78.63 42.92 79.01 43.16C81.6 44.8 84.02 46.74 86.2 48.92C86.79 49.51 87.35 50.11 87.92 50.71C88.21 51.02 88.57 51.4 88.66 51.95C88.7 52.19 88.64 52.44 88.48 52.64C87.77 53.53 87.16 54.17 86.57 54.78C85.97 55.4 85.36 56.03 84.61 56.98C84.82 57.64 85.06 58.4 85.32 59.19C85.84 60.79 86.42 62.57 86.79 63.92C87.5 64.21 88.19 64.37 88.91 64.53C89.97 64.77 91.17 65.04 92.62 65.79C92.92 65.94 93.1 66.25 93.09 66.58C93.01 70.14 92.27 73.34 90.84 76.36C90.68 76.7 90.32 76.9 89.95 76.85C89.32 76.77 88.79 76.69 88.28 76.62C87.17 76.45 86.27 76.32 84.88 76.31C83.86 78.31 82.38 80.42 80.81 82.12C81.25 83.21 81.47 84.17 81.7 85.17C81.88 85.95 82.06 86.75 82.37 87.71C82.5 88.13 82.3 88.59 81.89 88.77C78.15 90.42 74.38 91.31 70.68 91.39H70.66L70.69 91.4ZM68.53 84.08C68.85 84.08 69.15 84.26 69.3 84.54C70.38 86.56 70.79 87.84 71.33 89.63C74.36 89.48 77.45 88.75 80.52 87.48C80.32 86.77 80.17 86.13 80.04 85.56C79.78 84.43 79.56 83.46 79.02 82.3C78.87 81.97 78.94 81.59 79.19 81.33C80.89 79.58 82.58 77.18 83.58 75.06C83.72 74.76 84.02 74.57 84.36 74.56C86.2 74.54 87.29 74.7 88.57 74.89C88.88 74.94 89.21 74.99 89.56 75.03C90.64 72.56 91.23 69.95 91.36 67.08C90.32 66.61 89.42 66.41 88.55 66.21C87.65 66.01 86.73 65.8 85.71 65.31C85.48 65.2 85.31 64.99 85.24 64.75C84.89 63.42 84.25 61.45 83.68 59.7C83.36 58.71 83.06 57.78 82.83 57.03C82.75 56.76 82.8 56.47 82.97 56.24C83.91 55.02 84.63 54.27 85.33 53.55C85.8 53.06 86.25 52.59 86.76 51.99C86.72 51.95 86.69 51.92 86.66 51.88C86.1 51.29 85.55 50.7 84.97 50.12C83.07 48.22 80.98 46.51 78.75 45.04C77.32 47 76.13 48.9 74.97 50.75C74.78 51.05 74.42 51.21 74.07 51.14C71.52 50.66 68.92 50.54 66.33 50.79C65.92 50.84 65.54 50.57 65.42 50.18C64.77 48.08 64 46 63.11 43.98C60.02 45.11 57.32 46.52 55.07 48.16C55.86 49.85 56.58 51.01 57.55 52.55L57.71 52.8C57.9 53.1 57.89 53.5 57.67 53.78L57.02 54.65C55.56 56.59 54.17 58.43 53.1 60.39C52.9 60.76 52.46 60.93 52.06 60.8C50.81 60.38 49.66 60.1 48.55 59.83C47.63 59.61 46.69 59.38 45.7 59.07C44.21 62.75 43.67 66.21 44.08 69.38C45.26 69.28 46.21 69.14 47.2 68.99C47.95 68.88 48.73 68.76 49.64 68.65C50.05 68.6 50.44 68.85 50.57 69.25C51.31 71.59 52.52 74.01 54.15 76.44C54.35 76.75 54.35 77.15 54.13 77.44C53.45 78.37 52.92 79.22 52.41 80.05C51.9 80.89 51.41 81.69 50.8 82.48C52.4 84.72 54.54 86.6 57.02 87.95C58.18 86.16 58.99 84.95 59.99 83.47C60.18 83.18 60.53 83.04 60.87 83.1L61.62 83.24C63.75 83.65 66.41 84.17 68.47 84.04C68.49 84.04 68.51 84.04 68.53 84.04V84.08ZM69.1 75.41C67.87 75.41 66.3 75.07 64.11 74.18C63.02 73.74 60.92 72.28 59.96 69.65C59.13 67.37 59.43 64.76 60.82 62.12C62.07 59.75 64.52 58.17 67.05 58.1C69.74 58.02 71.55 58.37 73.09 59.27C75.69 60.79 77.33 63.88 77.16 66.97C77 69.97 75.23 72.8 72.56 74.36C71.55 74.95 70.56 75.42 69.1 75.42V75.41ZM67.77 59.83C67.56 59.83 67.33 59.83 67.1 59.84C65.21 59.9 63.3 61.14 62.36 62.94C61.19 65.16 60.93 67.22 61.6 69.06C62.3 70.97 63.88 72.21 64.77 72.58C69.12 74.35 70.37 73.63 71.68 72.86C73.82 71.61 75.29 69.26 75.42 66.88C75.55 64.43 74.27 61.97 72.21 60.78C71.09 60.13 69.74 59.84 67.76 59.84L67.77 59.83Z" fill="black"/>
<path d="M84.37 116.04C84.37 116.04 49.09 115.58 49.05 115.91C48.55 123.16 49 130.48 50.37 137.6C51.07 141.23 52.66 149.78 65.61 150.54C75.77 151.14 80.52 145.48 81.94 139.56C83.56 132.82 84.42 124.14 84.38 116.04H84.37Z" fill="white"/>
<path d="M67.11 151.46C66.61 151.46 66.09 151.44 65.55 151.41C51.99 150.61 50.26 141.64 49.52 137.81C48.12 130.55 47.67 123.18 48.18 115.84C48.27 114.98 48.8 114.97 50.56 114.94C51.53 114.92 52.92 114.91 54.58 114.91C57.52 114.91 61.6 114.93 66.73 114.97C75.46 115.04 84.29 115.16 84.38 115.16C84.85 115.16 85.24 115.55 85.24 116.02C85.29 124.4 84.39 133.05 82.78 139.75C81.92 143.35 78.68 151.44 67.11 151.44V151.46ZM49.86 116.71C49.44 123.63 49.9 130.61 51.22 137.44C51.95 141.21 53.44 148.96 65.65 149.68C77.18 150.36 80.28 142.69 81.08 139.36C82.61 133.01 83.48 124.87 83.49 116.9C71.12 116.74 53.49 116.58 49.86 116.71V116.71Z" fill="black"/>
<path d="M72.68 122.17C65.89 122.17 59.07 121.99 52.33 121.63C52.17 121.63 52.05 121.48 52.06 121.33C52.06 121.17 52.2 121.04 52.37 121.06C61.83 121.57 71.42 121.72 80.9 121.51C81.07 121.51 81.19 121.63 81.2 121.79C81.2 121.95 81.08 122.08 80.92 122.09C78.19 122.15 75.44 122.18 72.7 122.18L72.68 122.17Z" fill="black"/>
<path d="M62.56 127.55C59.29 127.55 56.02 127.49 52.77 127.37C52.61 127.37 52.48 127.23 52.49 127.07C52.49 126.91 52.64 126.8 52.79 126.79C61.96 127.12 71.26 126.99 80.42 126.38C80.58 126.37 80.72 126.49 80.73 126.65C80.74 126.81 80.62 126.95 80.46 126.96C74.53 127.35 68.54 127.55 62.56 127.55V127.55Z" fill="black"/>
<path d="M53.42 133.02C53.26 133.02 53.13 132.89 53.13 132.74C53.13 132.58 53.25 132.45 53.41 132.44L79.8 131.81C79.95 131.79 80.09 131.93 80.1 132.09C80.1 132.25 79.98 132.38 79.82 132.39L53.43 133.02H53.42Z" fill="black"/>
<path d="M62.88 138.16C60.11 138.16 57.34 138.15 54.59 138.13C54.43 138.13 54.3 138 54.3 137.84C54.3 137.68 54.43 137.55 54.59 137.55C62.55 137.62 70.63 137.59 78.6 137.46C78.76 137.46 78.89 137.59 78.89 137.75C78.89 137.91 78.76 138.04 78.6 138.04C73.38 138.12 68.11 138.16 62.86 138.16H62.88Z" fill="black"/>
<path d="M64.52 142.82C61.73 142.82 58.94 142.78 56.17 142.69C56.01 142.69 55.88 142.55 55.89 142.39C55.89 142.23 56.01 142.1 56.19 142.11C63.15 142.33 70.22 142.27 77.19 141.94C77.34 141.92 77.49 142.05 77.49 142.22C77.49 142.38 77.37 142.52 77.21 142.52C73 142.72 68.75 142.82 64.51 142.82H64.52Z" fill="black"/>
<path d="M66.81 146.95C64.4 146.95 61.99 146.88 59.59 146.75C59.43 146.75 59.31 146.6 59.32 146.44C59.32 146.28 59.47 146.15 59.63 146.17C64.05 146.42 68.52 146.44 72.94 146.23C73.1 146.21 73.24 146.34 73.24 146.51C73.24 146.67 73.12 146.81 72.96 146.81C70.92 146.91 68.86 146.96 66.81 146.96V146.95Z" fill="black"/>
<g opacity="0.13">
<path d="M83.82 116.37C83.04 114.33 79.9 114.98 79.92 117.15C79.4 122.87 79.35 127.01 78.89 130.97C78.52 133.22 77.62 135.31 76.84 137.43C76.15 139.14 72.75 143.47 69.39 144.95C68.14 145.63 64 146.6 61.84 145.65C60.56 145.29 59.5 144.65 56.18 142.85C53.56 141.4 51.33 145.19 53.88 146.78C55.3 147.66 56.7 148.57 58.07 149.53C57.9 149.42 57.7 149.23 57.57 149.15C58.78 150.14 60.24 150.82 61.75 151.23C70.19 152.96 76.84 148.38 80.76 141.14C82.23 138.15 82.97 134.14 83.19 132.61C83.6 129.97 83.54 130.13 83.66 127.2C83.66 126.75 83.8 126.16 83.64 125.61C83.7 124.4 83.74 123.21 83.81 122.04C83.86 120.63 83.9 119.22 83.97 117.81C83.99 117.32 84.08 116.8 83.83 116.36L83.82 116.37Z" fill="black"/>
</g>
<path d="M67.63 13.85C67.15 13.85 66.77 13.47 66.76 12.99C66.71 8.93999 66.88 4.82999 67.24 0.799995C67.28 0.319995 67.71 -0.0300054 68.19 0.00999463C68.67 0.0499946 69.02 0.479995 68.98 0.949995C68.62 4.92999 68.46 8.96999 68.51 12.97C68.51 13.45 68.13 13.84 67.65 13.85H67.63Z" fill="black"/>
<path d="M111.56 28.82C111.32 28.82 111.09 28.72 110.92 28.54C110.6 28.18 110.62 27.63 110.98 27.31C113.99 24.57 116.79 21.55 119.31 18.34C119.61 17.96 120.15 17.89 120.53 18.19C120.91 18.49 120.98 19.03 120.68 19.41C118.11 22.7 115.24 25.78 112.16 28.59C111.99 28.74 111.78 28.82 111.57 28.82H111.56Z" fill="black"/>
<path d="M134.25 67.58C134.25 67.58 134.22 67.58 134.21 67.58L122.96 67.1C122.48 67.08 122.11 66.67 122.13 66.19C122.15 65.71 122.55 65.34 123.04 65.36L134.29 65.84C134.77 65.86 135.14 66.27 135.12 66.75C135.1 67.22 134.71 67.58 134.25 67.58V67.58Z" fill="black"/>
<path d="M115.29 110.57C115.12 110.57 114.96 110.52 114.81 110.42L105.44 104.17C105.04 103.9 104.93 103.36 105.2 102.96C105.47 102.56 106.01 102.45 106.41 102.72L115.78 108.97C116.18 109.24 116.29 109.78 116.02 110.18C115.85 110.43 115.58 110.57 115.3 110.57H115.29Z" fill="black"/>
<path d="M23.56 28.65C23.35 28.65 23.14 28.58 22.97 28.42C19.88 25.61 17.02 22.52 14.45 19.24C14.15 18.86 14.22 18.31 14.6 18.02C14.98 17.72 15.53 17.79 15.82 18.17C18.33 21.38 21.13 24.39 24.14 27.14C24.5 27.46 24.52 28.01 24.2 28.37C24.03 28.56 23.79 28.65 23.56 28.65V28.65Z" fill="black"/>
<path d="M0.869981 67.42C0.409981 67.42 0.0199806 67.05 -1.94397e-05 66.59C-0.0200194 66.11 0.349981 65.7 0.829981 65.68L12.08 65.2C12.56 65.17 12.97 65.55 12.99 66.03C13.01 66.51 12.64 66.92 12.16 66.94L0.909981 67.42C0.909981 67.42 0.879981 67.42 0.869981 67.42V67.42Z" fill="black"/>
<path d="M17.92 110.4C17.64 110.4 17.36 110.26 17.2 110.01C16.93 109.61 17.04 109.07 17.44 108.8L26.81 102.55C27.21 102.28 27.75 102.39 28.02 102.79C28.29 103.19 28.18 103.73 27.78 104L18.41 110.25C18.26 110.35 18.09 110.4 17.93 110.4H17.92Z" fill="black"/>
<g opacity="0.13">
<path d="M95.11 88.05C93.98 89.13 92.89 90.26 91.76 91.35C91.74 91.37 91.73 91.38 91.73 91.39C90.07 92.71 88.65 94.33 87.17 95.85C85.86 97.22 84.62 98.66 83.44 100.14C83.14 100.43 82.83 100.74 82.46 101.01C82.22 101.25 81.01 102.26 80.79 102.46C80.77 102.48 80.74 102.5 80.72 102.51C80.54 102.65 80.09 103 79.79 103.24C76.69 105.54 73.77 107.65 71.31 108.18C68.41 108.86 65.64 108.89 63.45 108.53C62.02 108.26 61.3 108.11 60.62 107.87C58.2 107.03 56.23 106.3 54.81 105.59C51.09 103.73 47.64 101.43 44.37 98.88C47.31 103.27 48.93 107.64 51.69 114.06C52.01 114.64 52.34 115.23 52.66 115.81C52.72 115.93 52.79 116.05 52.85 116.17C52.99 116.2 53.13 116.22 53.29 116.23C54.48 116.15 55.65 116.48 56.83 116.5C58.74 116.61 60.64 116.48 62.55 116.41C65.58 116.31 68.57 115.7 71.61 115.68C74.97 115.42 76.9 115.75 78.32 116C80.16 116.04 79.82 115.76 80.98 115.79C81.19 115.79 81.37 115.75 81.55 115.7C81.69 115.15 81.86 114.62 82.04 114.09C81.72 113.76 81.7 113.27 81.89 112.84C83.52 109.05 85.73 105.63 88.13 102.29C92.42 96.33 97.47 90.92 101.47 84.75C101.71 84.26 101.95 83.77 102.18 83.28C103.2 81.18 104.22 79.07 105.23 76.97C102.39 80.3 98.29 84.69 95.11 88.05V88.05Z" fill="black"/>
</g>
<g opacity="0.13">
<path d="M79.97 84.86C78.58 84.55 77.06 85.6 75.66 85.82C73.89 86.25 74.66 86.15 72.35 86.19C71.77 86.21 71.14 86.1 70.62 86.39C68.29 87.28 69.04 90.86 71.51 90.83C73.62 90.9 75.72 90.73 77.73 90.06C78.73 89.69 79.89 89.55 80.76 88.91C82.3 87.87 81.75 85.29 79.97 84.85V84.86Z" fill="black"/>
</g>
<g opacity="0.13">
<path d="M90.15 66.03C89.67 66.47 89.64 67.13 89.5 67.72C89.3 68.67 89.02 69.59 88.68 70.5C88.19 71.71 88.32 71.58 87.43 73.23C87.2 73.68 86.81 74.1 86.79 74.62C86.45 76.5 89.16 77.41 90.08 75.76C91.08 74.1 91.82 72.31 92.43 70.47C92.73 69.36 93.21 68.2 93.17 67.05C93.07 65.62 91.12 65 90.16 66.03H90.15Z" fill="black"/>
</g>
</g>
<defs>
<clipPath id="clip0_12_39">
<rect width="135.12" height="151.6" fill="white"/>
</clipPath>
</defs>
</svg>
