<svg width="530" height="173" viewBox="0 0 530 173" fill="none" xmlns="http://www.w3.org/2000/svg">
<path d="M29.92 96.152C25.696 96.152 21.984 95.48 18.784 94.136C15.584 92.728 13.024 90.808 11.104 88.376C9.184 85.944 8.032 83.128 7.648 79.928H20.032C20.416 81.784 21.44 83.384 23.104 84.728C24.832 86.008 27.04 86.648 29.728 86.648C32.416 86.648 34.368 86.104 35.584 85.016C36.864 83.928 37.504 82.68 37.504 81.272C37.504 79.224 36.608 77.848 34.816 77.144C33.024 76.376 30.528 75.64 27.328 74.936C25.28 74.488 23.2 73.944 21.088 73.304C18.976 72.664 17.024 71.864 15.232 70.904C13.504 69.88 12.096 68.6 11.008 67.064C9.92 65.464 9.376 63.512 9.376 61.208C9.376 56.984 11.04 53.432 14.368 50.552C17.76 47.672 22.496 46.232 28.576 46.232C34.208 46.232 38.688 47.544 42.016 50.168C45.408 52.792 47.424 56.408 48.064 61.016H36.448C35.744 57.496 33.088 55.736 28.48 55.736C26.176 55.736 24.384 56.184 23.104 57.08C21.888 57.976 21.28 59.096 21.28 60.44C21.28 61.848 22.208 62.968 24.064 63.8C25.92 64.632 28.384 65.4 31.456 66.104C34.784 66.872 37.824 67.736 40.576 68.696C43.392 69.592 45.632 70.968 47.296 72.824C48.96 74.616 49.792 77.208 49.792 80.6C49.856 83.544 49.088 86.2 47.488 88.568C45.888 90.936 43.584 92.792 40.576 94.136C37.568 95.48 34.016 96.152 29.92 96.152ZM77.0935 96.152C72.9975 96.152 69.6375 95.512 67.0135 94.232C64.3895 92.888 62.4375 91.128 61.1575 88.952C59.8775 86.776 59.2375 84.376 59.2375 81.752C59.2375 77.336 60.9655 73.752 64.4215 71C67.8775 68.248 73.0615 66.872 79.9735 66.872H92.0695V65.72C92.0695 62.456 91.1415 60.056 89.2855 58.52C87.4295 56.984 85.1255 56.216 82.3735 56.216C79.8775 56.216 77.7015 56.824 75.8455 58.04C73.9895 59.192 72.8375 60.92 72.3895 63.224H60.3895C60.7095 59.768 61.8615 56.76 63.8455 54.2C65.8935 51.64 68.5175 49.688 71.7175 48.344C74.9175 46.936 78.5015 46.232 82.4695 46.232C89.2535 46.232 94.5975 47.928 98.5015 51.32C102.406 54.712 104.358 59.512 104.358 65.72V95H93.8935L92.7415 87.32C91.3335 89.88 89.3495 91.992 86.7895 93.656C84.2935 95.32 81.0615 96.152 77.0935 96.152ZM79.8775 86.552C83.3975 86.552 86.1175 85.4 88.0375 83.096C90.0215 80.792 91.2695 77.944 91.7815 74.552H81.3175C78.0535 74.552 75.7175 75.16 74.3095 76.376C72.9015 77.528 72.1975 78.968 72.1975 80.696C72.1975 82.552 72.9015 83.992 74.3095 85.016C75.7175 86.04 77.5735 86.552 79.8775 86.552ZM116.084 95V47.384H126.932L127.892 55.448C129.364 52.632 131.476 50.392 134.228 48.728C137.044 47.064 140.34 46.232 144.116 46.232C150.004 46.232 154.58 48.088 157.844 51.8C161.108 55.512 162.74 60.952 162.74 68.12V95H150.452V69.272C150.452 65.176 149.62 62.04 147.956 59.864C146.292 57.688 143.7 56.6 140.18 56.6C136.724 56.6 133.876 57.816 131.636 60.248C129.46 62.68 128.372 66.072 128.372 70.424V95H116.084ZM196.378 96.152C191.898 96.152 187.898 95.064 184.378 92.888C180.858 90.712 178.074 87.736 176.026 83.96C173.978 80.184 172.954 75.896 172.954 71.096C172.954 66.296 173.978 62.04 176.026 58.328C178.074 54.552 180.858 51.608 184.378 49.496C187.898 47.32 191.898 46.232 196.378 46.232C199.962 46.232 203.098 46.904 205.786 48.248C208.474 49.592 210.65 51.48 212.314 53.912V25.88H224.602V95H213.658L212.314 88.184C210.778 90.296 208.73 92.152 206.17 93.752C203.674 95.352 200.41 96.152 196.378 96.152ZM198.97 85.4C202.938 85.4 206.17 84.088 208.666 81.464C211.226 78.776 212.506 75.352 212.506 71.192C212.506 67.032 211.226 63.64 208.666 61.016C206.17 58.328 202.938 56.984 198.97 56.984C195.066 56.984 191.834 58.296 189.274 60.92C186.714 63.544 185.434 66.936 185.434 71.096C185.434 75.256 186.714 78.68 189.274 81.368C191.834 84.056 195.066 85.4 198.97 85.4ZM265.339 96.152C261.755 96.152 258.619 95.48 255.931 94.136C253.243 92.792 251.067 90.904 249.403 88.472L248.059 95H237.115V25.88H249.403V54.2C250.939 52.088 252.955 50.232 255.451 48.632C258.011 47.032 261.307 46.232 265.339 46.232C269.819 46.232 273.819 47.32 277.339 49.496C280.859 51.672 283.643 54.648 285.691 58.424C287.739 62.2 288.763 66.488 288.763 71.288C288.763 76.088 287.739 80.376 285.691 84.152C283.643 87.864 280.859 90.808 277.339 92.984C273.819 95.096 269.819 96.152 265.339 96.152ZM262.747 85.4C266.651 85.4 269.883 84.088 272.443 81.464C275.003 78.84 276.283 75.448 276.283 71.288C276.283 67.128 275.003 63.704 272.443 61.016C269.883 58.328 266.651 56.984 262.747 56.984C258.779 56.984 255.515 58.328 252.955 61.016C250.459 63.64 249.211 67.032 249.211 71.192C249.211 75.352 250.459 78.776 252.955 81.464C255.515 84.088 258.779 85.4 262.747 85.4ZM322.588 96.152C317.98 96.152 313.82 95.096 310.108 92.984C306.46 90.872 303.548 87.96 301.372 84.248C299.26 80.472 298.204 76.12 298.204 71.192C298.204 66.264 299.292 61.944 301.468 58.232C303.644 54.456 306.556 51.512 310.204 49.4C313.916 47.288 318.076 46.232 322.684 46.232C327.228 46.232 331.324 47.288 334.972 49.4C338.684 51.512 341.596 54.456 343.708 58.232C345.884 61.944 346.972 66.264 346.972 71.192C346.972 76.12 345.884 80.472 343.708 84.248C341.596 87.96 338.684 90.872 334.972 92.984C331.26 95.096 327.132 96.152 322.588 96.152ZM322.588 85.496C325.788 85.496 328.572 84.312 330.94 81.944C333.308 79.512 334.492 75.928 334.492 71.192C334.492 66.456 333.308 62.904 330.94 60.536C328.572 58.104 325.82 56.888 322.684 56.888C319.42 56.888 316.604 58.104 314.236 60.536C311.932 62.904 310.78 66.456 310.78 71.192C310.78 75.928 311.932 79.512 314.236 81.944C316.604 84.312 319.388 85.496 322.588 85.496ZM350.916 95L368.196 71.192L350.916 47.384H364.068L376.164 64.28L388.164 47.384H401.412L384.036 71.192L401.412 95H388.164L376.164 78.104L364.068 95H350.916ZM414.52 95.672C412.28 95.672 410.424 94.968 408.952 93.56C407.544 92.152 406.84 90.456 406.84 88.472C406.84 86.424 407.544 84.696 408.952 83.288C410.424 81.88 412.28 81.176 414.52 81.176C416.76 81.176 418.584 81.88 419.992 83.288C421.464 84.696 422.2 86.424 422.2 88.472C422.2 90.456 421.464 92.152 419.992 93.56C418.584 94.968 416.76 95.672 414.52 95.672ZM438.927 39.992C436.687 39.992 434.831 39.32 433.359 37.976C431.951 36.632 431.247 34.936 431.247 32.888C431.247 30.84 431.951 29.176 433.359 27.896C434.831 26.552 436.687 25.88 438.927 25.88C441.167 25.88 442.991 26.552 444.399 27.896C445.871 29.176 446.607 30.84 446.607 32.888C446.607 34.936 445.871 36.632 444.399 37.976C442.991 39.32 441.167 39.992 438.927 39.992ZM432.783 95V47.384H445.071V95H432.783ZM480.744 96.152C476.136 96.152 471.976 95.096 468.264 92.984C464.616 90.872 461.704 87.96 459.528 84.248C457.416 80.472 456.36 76.12 456.36 71.192C456.36 66.264 457.448 61.944 459.624 58.232C461.8 54.456 464.712 51.512 468.36 49.4C472.072 47.288 476.232 46.232 480.84 46.232C485.384 46.232 489.48 47.288 493.128 49.4C496.84 51.512 499.752 54.456 501.864 58.232C504.04 61.944 505.128 66.264 505.128 71.192C505.128 76.12 504.04 80.472 501.864 84.248C499.752 87.96 496.84 90.872 493.128 92.984C489.416 95.096 485.288 96.152 480.744 96.152ZM480.744 85.496C483.944 85.496 486.728 84.312 489.096 81.944C491.464 79.512 492.648 75.928 492.648 71.192C492.648 66.456 491.464 62.904 489.096 60.536C486.728 58.104 483.976 56.888 480.84 56.888C477.576 56.888 474.76 58.104 472.392 60.536C470.088 62.904 468.936 66.456 468.936 71.192C468.936 75.928 470.088 79.512 472.392 81.944C474.76 84.312 477.544 85.496 480.744 85.496Z" fill="black"/>
<path d="M528 170C451.368 142.375 496.07 113.823 528 103V170Z" fill="#ACD4F7"/>
<path d="M10.2965 148.556C469.509 148.556 469.095 140.556 490.666 148.556M9.8817 125.5L11.512 125.5M11.512 125.5C469.094 125.519 468.705 133.491 490.251 125.5M11.512 125.5L11.541 125.5M11.512 125.5C8.992 125.506 6.57693 126.273 4.7945 128.515C3.00521 130.765 2 133.817 2 137C2 140.183 3.00521 143.235 4.7945 145.485C6.58378 147.736 9.01058 148.5 11.541 148.5M528 170C451.368 142.375 496.07 113.823 528 103V170Z" stroke="black" stroke-width="3"/>
<path d="M64 126L49 148" stroke="black" stroke-width="3"/>
<path d="M75 126L60 148" stroke="black" stroke-width="3"/>
<path d="M120 126L105 148" stroke="black" stroke-width="3"/>
<path d="M131 126L116 148" stroke="black" stroke-width="3"/>
<path d="M175.5 126.5L161 148" stroke="black" stroke-width="3"/>
<path d="M186.5 126.5L172 148" stroke="black" stroke-width="3"/>
<path d="M231.5 126.5L217 148" stroke="black" stroke-width="3"/>
<path d="M242.5 126.5L228 148" stroke="black" stroke-width="3"/>
</svg>
