<svg width="160" height="112" viewBox="0 0 160 112" fill="none" xmlns="http://www.w3.org/2000/svg">
<path d="M73.3624 43.8492C54.4873 35.9331 42.2715 37.9397 36.7589 40.8063C34.5759 41.9529 26.8142 47.6639 20.7944 70.8168C20.5519 71.743 20.2872 72.8455 20.9267 73.529C27.7623 69.8907 39.9782 60.2547 53.9581 54.2349C61.2348 51.1038 56.8687 57.3661 62.4475 55.8226C64.7407 55.1831 67.1443 54.6759 69.1509 53.397C71.1795 52.096 74.5311 47.267 73.3404 43.8272L73.3624 43.8492Z" fill="white"/>
<path d="M20.9268 74.6315C20.6401 74.6315 20.3533 74.5213 20.1328 74.3008C19.0524 73.1542 19.4713 71.5224 19.736 70.5522C25.9101 46.826 33.9365 41.0488 36.2518 39.836C39.4271 38.1823 51.5326 33.5076 73.7815 42.8349C74.0681 42.9452 74.2887 43.1877 74.3989 43.4964C75.7661 47.4875 72.1718 52.7796 69.7683 54.3231C67.894 55.5139 65.7772 56.0872 63.7486 56.6164C63.4178 56.7046 63.087 56.7928 62.7563 56.881C59.6031 57.7409 58.655 56.462 58.0155 55.1611C57.6407 54.4334 57.3981 53.9483 54.4213 55.2272C45.3145 59.1522 36.9794 64.5986 30.2982 68.9867C26.8363 71.2578 23.8595 73.2203 21.478 74.4772C21.3237 74.5654 21.1472 74.6095 20.9708 74.6095L20.9268 74.6315ZM49.2173 39.373C42.7124 39.373 38.8095 40.9606 37.244 41.7765C35.7445 42.5483 27.9167 47.6419 21.8308 71.1035C21.7646 71.324 21.6984 71.6106 21.6543 71.8753C23.7271 70.6845 26.2409 69.0307 29.0634 67.1785C35.8108 62.7464 44.2339 57.2338 53.5172 53.2427C57.6185 51.4787 58.9637 52.2725 59.9339 54.1908C60.3087 54.9405 60.4631 55.2272 62.1389 54.7642C62.4697 54.676 62.8004 54.5877 63.1532 54.4995C65.1156 53.9703 66.9679 53.4852 68.5555 52.4709C70.2534 51.3684 72.9436 47.3773 72.4143 44.621C62.5799 40.5637 54.9064 39.3509 49.1954 39.3509L49.2173 39.373Z" fill="black"/>
<path d="M91.6204 69.4497C92.8332 89.7361 87.0559 99.0634 82.4915 103.275C80.6834 104.951 72.4365 111.676 48.4237 109.559C47.4534 109.471 46.3069 109.361 45.8879 108.523C51.621 103.341 64.8732 95.1604 75.2589 84.0912C80.6613 78.336 73.2745 80.3205 76.582 75.6238C77.9492 73.6834 79.2281 71.6106 81.1465 70.1774C83.0649 68.7441 88.7539 67.2006 91.6425 69.4497H91.6204Z" fill="white"/>
<path d="M57.1556 111.059C54.4655 111.059 51.5327 110.927 48.3134 110.662C47.2991 110.574 45.6233 110.419 44.8956 109.03C44.6751 108.589 44.7633 108.038 45.1381 107.707C47.1447 105.899 49.9892 103.76 53.3189 101.291C59.7135 96.5056 67.6736 90.552 74.443 83.3415C76.6481 80.9821 76.2732 80.6073 75.722 80.0119C74.7077 78.9756 73.8036 77.6525 75.6778 74.9845C75.8763 74.6978 76.0748 74.4332 76.2732 74.1465C77.464 72.4266 78.6988 70.6405 80.4629 69.2954C82.7341 67.5535 88.9522 65.9658 92.2818 68.5678C92.5244 68.7662 92.6788 69.0529 92.7008 69.3616C93.9136 89.7141 88.2246 99.4604 83.2192 104.047C80.7495 106.318 73.6052 111.037 57.1556 111.037V111.059ZM47.718 108.391C48.0046 108.435 48.2914 108.457 48.5119 108.479C70.4961 110.419 79.0736 104.929 81.7638 102.459C86.3723 98.2255 91.5982 89.1849 90.5618 70.0452C88.1143 68.6339 83.3955 69.8026 81.7858 71.0374C80.2864 72.184 79.2059 73.7496 78.0593 75.4034C77.8609 75.6901 77.6624 75.9767 77.4639 76.2634C76.4716 77.6746 76.6922 77.8951 77.2876 78.5125C78.8091 80.0781 79.0957 81.5996 76.0528 84.863C69.151 92.2058 61.1026 98.2255 54.6418 103.055C51.9517 105.061 49.5702 106.847 47.74 108.391H47.718Z" fill="black"/>
<path d="M143.24 40.1889C119.029 55.6683 94.8395 71.1255 70.6282 86.6049C70.6282 86.6049 50.3198 58.4907 50.7608 57.3882C73.2963 38.8438 94.7955 21.6886 117.838 3.73961C122.535 6.71641 128.665 8.76707 131.906 13.2212C133.736 15.735 134.993 18.6016 136.25 21.4461C137.551 24.4229 138.874 27.3776 140.175 30.3324C141.564 33.4856 142.975 36.7049 143.24 40.1889V40.1889Z" fill="white"/>
<path d="M70.6284 87.6854C70.2976 87.6854 69.9447 87.5311 69.7463 87.2224C69.7022 87.1562 64.6086 80.1001 59.6473 72.9998C49.2616 58.182 49.4599 57.6969 49.7686 56.9472C49.8348 56.7708 49.9451 56.6385 50.0774 56.5062C71.4001 38.9541 92.7228 21.9091 117.177 2.83554C117.529 2.54888 118.037 2.52683 118.434 2.76939C119.801 3.6514 121.3 4.42314 122.866 5.26106C126.57 7.20149 130.385 9.23013 132.788 12.5377C134.685 15.1617 135.986 18.0944 137.243 20.961L141.168 29.8473C142.579 33.0446 144.034 36.3742 144.321 40.0566C144.343 40.4535 144.166 40.8504 143.814 41.0709L71.2017 87.487C71.0253 87.5972 70.8268 87.6634 70.6063 87.6634L70.6284 87.6854ZM52.0399 57.741C53.7378 60.9824 64.0132 75.5577 70.8929 85.1276L142.072 39.6376C141.697 36.5506 140.396 33.6179 139.161 30.7734L135.236 21.8871C134.023 19.1528 132.766 16.3083 131.002 13.8828C128.885 10.9721 125.291 9.07579 121.829 7.24561C120.506 6.56205 119.161 5.8344 117.904 5.08468C93.9577 23.7614 72.9878 40.5417 52.0399 57.7631V57.741Z" fill="black"/>
<path d="M143.593 39.9464C135.831 27.7304 127.011 14.9412 117.838 3.73963C130.01 2.54891 143.439 1.99764 155.633 1.11563C157.838 0.961276 159.403 2.98991 158.653 5.04059C154.199 17.1683 148.003 28.8771 143.593 39.9464V39.9464Z" fill="white"/>
<path d="M143.593 41.0488C143.218 41.0488 142.865 40.8503 142.667 40.5416C133.67 26.4073 125.027 14.2576 116.978 4.42314C116.714 4.11443 116.67 3.67343 116.824 3.32062C116.978 2.94576 117.331 2.68115 117.728 2.6591C125.423 1.90939 133.692 1.40224 141.697 0.917136C146.305 0.630481 151.068 0.343818 155.544 0.0130621C156.956 -0.0971898 158.301 0.498173 159.139 1.60069C159.954 2.68116 160.153 4.11443 159.668 5.4154C157.154 12.2731 154.067 19.0205 151.09 25.5253C148.731 30.6631 146.526 35.5362 144.607 40.3432C144.453 40.7181 144.1 40.9826 143.703 41.0268C143.659 41.0268 143.637 41.0268 143.593 41.0268V41.0488ZM119.977 4.64362C127.364 13.8166 135.214 24.8859 143.395 37.5869C145.137 33.3753 147.077 29.0975 149.128 24.6213C152.082 18.1385 155.147 11.4352 157.639 4.66569C157.86 4.04828 157.771 3.4088 157.396 2.92369C157.022 2.41654 156.404 2.15193 155.721 2.19603C151.222 2.52678 146.459 2.81345 141.829 3.1001C134.552 3.54111 127.055 4.00416 119.977 4.64362V4.64362Z" fill="black"/>
<path d="M102.028 27.1349C107.827 23.0777 115.699 24.1802 119.58 29.6487C123.461 35.0951 121.918 42.8127 116.096 46.892C110.297 50.9493 102.425 49.8468 98.5442 44.3783C94.6633 38.9319 96.2068 31.2142 102.028 27.1349Z" fill="#ACD4F7"/>
<path d="M108.423 50.3981C104.233 50.3981 100.176 48.5238 97.64 44.9958C95.6554 42.2174 94.9058 38.8217 95.5011 35.3818C96.1406 31.6994 98.2353 28.436 101.389 26.2309C107.673 21.8208 116.228 23.0777 120.462 28.9872C122.447 31.7656 123.196 35.1613 122.601 38.5791C121.962 42.2615 119.867 45.525 116.714 47.7521C114.178 49.5382 111.267 50.3981 108.423 50.3981V50.3981ZM109.68 25.7678C107.276 25.7678 104.806 26.4955 102.645 28.017C99.9553 29.8913 98.1912 32.6476 97.662 35.7567C97.1769 38.6012 97.7943 41.4236 99.426 43.7169C102.954 48.6782 110.143 49.6705 115.457 45.966C118.147 44.0917 119.911 41.3354 120.44 38.2263C120.925 35.3818 120.308 32.5594 118.676 30.2661C116.581 27.3334 113.208 25.7678 109.68 25.7678V25.7678Z" fill="black"/>
<path d="M1.10356 100.827C0.750758 100.827 0.419927 100.673 0.199423 100.364C-0.153383 99.8793 -0.0210918 99.1957 0.464017 98.8429C15.0614 88.6115 30.2321 78.7771 45.5791 69.6482C46.1084 69.3395 46.7698 69.5159 47.0786 70.0231C47.3873 70.5523 47.2109 71.2138 46.7037 71.5225C31.4008 80.6293 16.2742 90.4196 1.7209 100.629C1.52245 100.761 1.30202 100.827 1.10356 100.827V100.827Z" fill="black"/>
<path d="M34.4437 92.9554C34.113 92.9554 33.7822 92.801 33.5617 92.5144C33.2088 92.0293 33.3191 91.3457 33.8042 90.9929C39.2506 87.0459 44.8735 83.2091 50.5405 79.6149C51.0476 79.2841 51.7312 79.4385 52.0399 79.9457C52.3706 80.4528 52.2162 81.1364 51.7091 81.4451C46.0642 85.0393 40.4855 88.832 35.0831 92.7569C34.8847 92.8892 34.6642 92.9554 34.4437 92.9554V92.9554Z" fill="black"/>
<path d="M47.8062 96.1527C47.4754 96.1527 47.1446 95.9983 46.9241 95.7117C46.5713 95.2266 46.6594 94.543 47.1445 94.1902C50.4521 91.6765 53.914 89.251 57.3759 86.9136C57.8831 86.5829 58.5667 86.7152 58.8974 87.2223C59.2282 87.7295 59.0958 88.413 58.5887 88.7438C55.1488 91.037 51.7311 93.4626 48.4676 95.9322C48.2692 96.0866 48.0487 96.1527 47.8062 96.1527V96.1527Z" fill="black"/>
<path d="M28.6444 64.1577C28.6444 64.1577 28.6223 64.1577 28.6002 64.1577C28.4018 64.1356 28.2695 63.9372 28.2915 63.7387L29.2177 56.7928C29.2398 56.5944 29.4382 56.44 29.6367 56.4841C29.8351 56.5062 29.9673 56.7046 29.9453 56.9031L29.0192 63.849C28.9972 64.0254 28.8429 64.1577 28.6665 64.1577H28.6444Z" fill="black"/>
<path d="M33.9143 60.8722C33.9143 60.8722 33.8924 60.8722 33.8703 60.8722C33.6719 60.8722 33.5174 60.6737 33.5395 60.4753L35.0389 46.5615C35.0389 46.363 35.2373 46.2087 35.4358 46.2307C35.6343 46.2307 35.7887 46.4292 35.7666 46.6276L34.2672 60.5414C34.2672 60.7178 34.0907 60.8722 33.9143 60.8722Z" fill="black"/>
<path d="M39.5813 59.1743C39.5813 59.1743 39.5593 59.1743 39.5373 59.1743C39.3388 59.1743 39.1844 58.9758 39.2065 58.7773L40.8603 42.5483C40.8603 42.3498 41.0587 42.1955 41.2571 42.2175C41.4556 42.2175 41.61 42.416 41.588 42.6144L39.9342 58.8435C39.9342 59.042 39.7577 59.1743 39.5813 59.1743Z" fill="black"/>
<path d="M45.3365 55.139C45.3365 55.139 45.3365 55.139 45.3144 55.139C45.116 55.139 44.9616 54.9626 44.9836 54.7421C45.2482 50.4643 45.7775 46.1645 46.5713 41.9528C46.6154 41.7544 46.7918 41.6221 46.9903 41.6662C47.1888 41.7103 47.3211 41.8867 47.277 42.0852C46.5052 46.2747 45.9759 50.5305 45.7113 54.7862C45.7113 54.9846 45.5349 55.1169 45.3585 55.1169L45.3365 55.139Z" fill="black"/>
<path d="M51.2019 52.6694C51.2019 52.6694 51.1798 52.6694 51.1577 52.6694C50.9593 52.6473 50.805 52.4709 50.8271 52.2725L51.9957 42.2396C52.0177 42.0411 52.1941 41.9088 52.3925 41.9088C52.591 41.9309 52.7454 42.1073 52.7234 42.3057L51.5546 52.3386C51.5546 52.515 51.3783 52.6694 51.2019 52.6694Z" fill="black"/>
<path d="M57.1776 48.2593C57.1776 48.2593 57.1114 48.2593 57.0893 48.2593C56.8909 48.2152 56.7806 48.0167 56.8247 47.8183L57.9935 42.8349C58.0376 42.6364 58.236 42.5042 58.4345 42.5703C58.6329 42.6144 58.7432 42.8129 58.6991 43.0113L57.5303 47.9947C57.4862 48.1711 57.332 48.2814 57.1776 48.2814V48.2593Z" fill="black"/>
<path d="M57.2878 107.398L57.2216 102.128C57.2216 101.93 57.376 101.754 57.5745 101.754C57.773 101.754 57.9273 101.908 57.9493 102.106L58.0155 107.31L57.6627 107.376H57.2878V107.398Z" fill="black"/>
<path d="M62.9769 106.583C62.8005 106.583 62.6461 106.45 62.624 106.274C62.2933 103.65 62.1389 100.982 62.183 98.3578C62.183 98.1593 62.3374 98.005 62.5579 98.005C62.7564 98.005 62.9107 98.1814 62.9107 98.3799C62.8666 100.982 63.021 103.606 63.3517 106.208C63.3738 106.406 63.2414 106.583 63.043 106.627C63.043 106.627 63.0209 106.627 62.9988 106.627L62.9769 106.583Z" fill="black"/>
<path d="M68.2909 106.472C68.1145 106.472 67.9603 106.34 67.9382 106.164C67.3428 102.613 66.9238 98.9972 66.6592 95.425C66.6592 95.2266 66.7915 95.0502 66.9899 95.0281C67.1884 95.0281 67.3649 95.1604 67.3869 95.3589C67.6515 98.931 68.0925 102.525 68.6658 106.031C68.6878 106.23 68.5556 106.406 68.3572 106.45C68.3572 106.45 68.313 106.45 68.2909 106.45V106.472Z" fill="black"/>
<path d="M74.0461 103.959C73.8697 103.959 73.7154 103.826 73.6933 103.65L71.6206 91.6544C71.5765 91.456 71.7088 91.2575 71.9073 91.2355C72.1057 91.1914 72.3042 91.3237 72.3262 91.5221L74.399 103.518C74.4431 103.716 74.3108 103.914 74.1123 103.936C74.1123 103.936 74.0681 103.936 74.0461 103.936V103.959Z" fill="black"/>
<path d="M79.713 100.827C79.5587 100.827 79.4044 100.717 79.3603 100.563C78.0373 95.8881 77.1331 91.0811 76.648 86.2521C76.648 86.0536 76.7804 85.8772 76.9788 85.8552C77.1773 85.8331 77.3537 85.9875 77.3757 86.1859C77.8608 90.9709 78.765 95.7337 80.0659 100.364C80.11 100.563 79.9997 100.761 79.8233 100.805C79.7792 100.805 79.7572 100.805 79.7351 100.805L79.713 100.827Z" fill="black"/>
<path d="M84.3878 95.0502C84.2334 95.0502 84.0791 94.9399 84.035 94.7856C83.0648 90.9929 82.2048 87.1121 81.4992 83.2532C81.4551 83.0548 81.5874 82.8563 81.7858 82.8343C81.9843 82.8122 82.1827 82.9225 82.2048 83.1209C82.9104 86.9577 83.7483 90.8165 84.7186 94.6092C84.7627 94.8076 84.6524 95.0061 84.454 95.0502C84.4319 95.0502 84.3877 95.0502 84.3657 95.0502H84.3878Z" fill="black"/>
<path d="M88.3127 86.627C88.1363 86.627 88.0039 86.5167 87.9598 86.3403L86.5045 80.0339C86.4604 79.8355 86.5927 79.637 86.7691 79.5929C86.9676 79.5488 87.166 79.6811 87.2101 79.8575L88.6654 86.1639C88.7095 86.3624 88.5772 86.5608 88.4008 86.6049C88.3788 86.6049 88.3568 86.6049 88.3127 86.6049V86.627Z" fill="black"/>
<g opacity="0.13">
<path d="M156.956 3.25446C155.39 3.38676 155.655 4.11442 155.125 4.84209C149.723 14.7427 144.938 24.9079 140.219 35.9993C137.529 37.19 135.081 38.932 132.612 40.5196C128.951 42.6805 119.845 49.472 116.052 51.8755C110.495 55.3154 102.425 60.9603 95.7657 65.1719C88.1584 69.8246 81.7638 73.948 74.9722 78.2919C73.3405 79.3283 71.0693 80.8718 70.5401 81.2025C69.9668 81.5994 69.2391 81.8641 69.0186 82.5697C68.5776 83.6943 69.5699 84.885 70.6945 84.8629C70.7606 85.4362 71.1575 85.9434 71.6647 86.23C71.7749 86.7151 72.0836 87.1341 72.5908 87.3767C72.9656 87.8838 73.5831 88.2146 74.2666 88.0602C74.6194 87.972 74.9501 87.7736 75.2588 87.5531C78.5884 87.3546 81.8079 86.1418 85.0272 85.3701C85.9092 85.1275 86.7692 84.8849 87.6512 84.6424C88.2466 84.466 88.908 84.3116 89.3269 83.8265C89.4813 83.6501 89.6137 83.4517 89.724 83.2532C90.8265 82.7902 91.2013 81.5113 91.3115 80.3867C91.4438 79.3944 91.554 78.4242 91.532 77.4319C91.532 77.2996 91.5321 77.1012 91.488 76.9248C91.488 76.9248 91.488 76.9248 91.488 76.9027C91.488 76.9027 91.488 76.9248 91.488 76.9468C91.488 76.9248 91.488 76.9027 91.488 76.8807C91.488 76.8145 91.488 76.7263 91.51 76.6602C91.5541 76.3956 91.5981 76.1089 91.554 75.8222C91.554 75.8222 91.554 75.8002 91.554 75.7782C91.5761 75.712 91.6203 75.6679 91.6423 75.6238C92.0392 74.6315 91.3776 73.4629 90.2972 73.3526C89.8782 73.3085 89.5034 73.4849 89.1286 73.6834C96.78 68.9867 104.387 64.2678 111.774 59.1522C116.471 55.9549 119.227 54.3452 124.145 50.9053C124.211 50.9053 124.277 50.9053 124.365 50.9053C125.401 50.5966 126.151 49.6705 127.077 49.1192C129.767 47.1567 136.471 43.9595 140.528 41.0488C141.366 40.4976 142.138 39.8581 142.777 39.0863C142.932 39.2848 143.152 39.4832 143.483 39.6155C145.07 40.1227 145.445 38.4689 145.974 37.3884C146.79 35.6685 147.584 33.9486 148.246 32.1625C150.649 25.0182 153.516 18.0282 156.25 10.9941C156.316 10.9059 156.36 10.8177 156.404 10.7075C156.404 10.6193 156.448 10.5311 156.47 10.4429C156.625 10.046 156.779 9.64906 156.933 9.2742C157.154 8.74499 157.198 8.17169 157 7.73068C157.419 6.91482 157.815 6.09893 158.234 5.26101C158.587 4.379 157.904 3.34263 156.956 3.29853V3.25446Z" fill="black"/>
</g>
<path d="M76.6922 83.6281C76.3394 83.6281 75.9866 83.4517 75.7881 83.143L56.2514 53.7057C55.9207 53.1985 56.053 52.515 56.5601 52.1842C57.0673 51.8535 57.7509 51.9858 58.0816 52.4929L77.6182 81.9302C77.949 82.4373 77.8168 83.1209 77.3096 83.4517C77.1332 83.584 76.9127 83.6281 76.7142 83.6281H76.6922Z" fill="black"/>
<g opacity="0.13">
<path d="M122.116 35.3157C122.072 34.2132 122.38 32.9343 121.763 31.942C120.837 30.3764 118.301 31.0379 118.213 32.8461C117.993 39.7258 114.685 43.3641 108.599 45.6132C107.938 45.8117 107.254 45.966 106.57 46.0322C106.57 46.0322 106.526 46.0322 106.504 46.0322C106.482 46.0322 106.46 46.0322 106.416 46.0322H106.46C106.173 46.0763 105.887 46.2086 105.644 46.407C104.476 47.3552 105.247 49.3839 106.747 49.3177C112.171 49.3398 117.772 46.4952 120.462 41.6883C121.631 39.7699 122.072 37.5208 122.116 35.2937V35.3157Z" fill="black"/>
</g>
</svg>
