<svg width="137" height="128" viewBox="0 0 137 128" fill="none" xmlns="http://www.w3.org/2000/svg">
<path d="M113.323 42.0286C107.801 28.1812 89.4774 7.17995 58.8541 7.17995C25.8672 7.17995 2.87879 31.3188 1.16355 60.6034C-1.2838 102.689 29.8833 126.347 58.8541 126.347C78.6212 126.347 97.5307 116.516 108.303 99.9702C119.076 83.4244 119.201 56.7545 113.323 42.0077V42.0286Z" fill="white"/>
<path d="M58.8541 127.393C42.9986 127.393 27.5406 120.658 16.4543 108.902C8.23368 100.2 -1.26288 84.7213 0.138596 60.5406C0.996215 45.7728 7.18781 32.1346 17.5629 22.1569C28.3145 11.8237 42.9777 6.13408 58.8541 6.13408C91.5274 6.13408 109.412 29.3526 114.286 41.6312C120.352 56.88 120.122 83.7382 109.182 100.535C98.3883 117.102 79.1023 127.393 58.8541 127.393V127.393ZM58.8541 8.22583C27.7916 8.22583 3.9665 30.2729 2.20943 60.6661C0.849788 84.1147 10.0117 99.0707 17.9603 107.48C28.6492 118.817 43.5634 125.322 58.8541 125.322C78.4121 125.322 97.0287 115.386 107.446 99.4054C117.695 83.6754 118.281 57.2147 112.361 42.4051C107.655 30.5867 90.3978 8.22583 58.8541 8.22583V8.22583Z" fill="black"/>
<path d="M114.453 37.343C121.105 31.4024 128.049 25.7966 135.224 20.5044C129.095 19.6886 123.113 19.2494 117.131 18.9147C118.658 12.9113 119.787 6.97076 120.917 1.03018C113.972 5.75755 108.031 10.5267 100.397 16.8857C99.3715 22.3033 97.991 28.0347 98.242 34.059C103.011 35.6905 109.307 35.9416 114.453 37.343Z" fill="white"/>
<path d="M114.453 38.3889C114.453 38.3889 114.265 38.3889 114.181 38.3471C111.922 37.7405 109.37 37.3431 106.881 36.9456C103.806 36.4645 100.606 35.9625 97.9072 35.0421C97.5098 34.8957 97.217 34.5401 97.196 34.1008C96.9659 28.8087 97.9491 23.8303 98.9113 19.0193C99.0577 18.2453 99.225 17.4714 99.3714 16.6974C99.4133 16.4673 99.5388 16.2582 99.727 16.0908C107.487 9.6273 113.344 4.94177 120.331 0.17257C120.686 -0.0575233 121.126 -0.0575233 121.481 0.17257C121.837 0.402663 122.004 0.82101 121.941 1.23936C120.896 6.71976 119.829 12.3466 118.448 17.9734C123.489 18.2663 129.325 18.7055 135.35 19.5004C135.768 19.5631 136.103 19.856 136.207 20.2743C136.312 20.6927 136.165 21.111 135.81 21.362C128.677 26.5914 121.711 32.2392 115.101 38.1379C114.913 38.3053 114.662 38.4098 114.411 38.4098L114.453 38.3889ZM99.2669 33.306C101.672 34.0381 104.475 34.4773 107.216 34.8957C109.558 35.2513 111.964 35.6278 114.181 36.1926C120.059 30.9632 126.23 25.943 132.526 21.2156C126.962 20.5672 121.649 20.2116 117.089 19.9396C116.775 19.9396 116.503 19.7723 116.315 19.5213C116.126 19.2703 116.064 18.9565 116.147 18.6637C117.444 13.5389 118.469 8.37225 119.431 3.33112C113.47 7.51463 108.136 11.8027 101.338 17.4505C101.212 18.0989 101.087 18.7683 100.961 19.4167C100.083 23.8931 99.1623 28.5159 99.2669 33.2851V33.306Z" fill="black"/>
<path d="M68.9155 28.4531C59.2307 26.2777 48.751 27.721 40.0702 32.4274C31.3894 37.1339 24.6121 45.0407 21.4327 54.1817C19.32 60.2478 18.7552 66.7322 19.0062 73.133C19.3618 82.002 24.1101 90.9129 31.0338 96.4979C39.5891 103.401 47.8097 106.852 57.5573 107.5C70.7562 108.379 84.1016 101.853 91.6319 91.2685C99.1413 80.6842 100.752 66.5021 96.2129 54.4327C91.6738 42.3633 81.6124 31.2979 68.9155 28.4531V28.4531Z" fill="white"/>
<path d="M59.9419 108.609C59.1261 108.609 58.3103 108.588 57.4945 108.525C47.5587 107.877 39.2126 104.405 30.3854 97.2927C23.0851 91.4149 18.3368 82.1693 17.9812 73.1539C17.6884 65.77 18.5042 59.432 20.4495 53.8051C23.7127 44.4341 30.6782 36.2972 39.5682 31.4861C48.4372 26.6751 59.2307 25.1899 69.1247 27.4072C81.0686 30.0846 92.0921 40.5434 97.1751 54.0352C101.902 66.6067 100.104 81.1025 92.4686 91.8332C85.1056 102.187 72.5551 108.567 59.9209 108.567L59.9419 108.609ZM59.9419 28.4949C53.2064 28.4949 46.45 30.1474 40.5931 33.3269C32.1634 37.9078 25.5325 45.6264 22.4367 54.4954C20.575 59.8712 19.8011 65.9373 20.073 73.0702C20.4077 81.5 24.8631 90.1598 31.7032 95.6612C40.1748 102.48 48.1653 105.806 57.6409 106.434C70.3588 107.27 83.3695 101.079 90.7952 90.6409C98.0327 80.4541 99.7479 66.7113 95.2507 54.7674C90.3978 41.9031 79.9809 31.9672 68.6854 29.4362C65.8197 28.7878 62.8703 28.474 59.9209 28.474L59.9419 28.4949Z" fill="black"/>
<path d="M64.2718 46.9233C59.0633 45.7728 53.4156 46.5468 48.7301 49.015C44.0655 51.4833 40.4049 55.6668 38.6896 60.4779C37.5601 63.6782 37.2463 67.1087 37.3928 70.4764C37.581 75.1411 40.1329 79.8475 43.8772 82.7969C48.479 86.4365 52.9136 88.2564 58.1639 88.591C65.2758 89.0512 72.4715 85.6208 76.5086 80.0358C80.5666 74.4717 81.4242 66.9832 78.9768 60.6243C76.5295 54.2654 71.1118 48.4294 64.2718 46.9233Z" fill="#ACD4F7"/>
<path d="M59.4399 89.6787C59.0006 89.6787 58.5404 89.6787 58.1012 89.6369C52.6626 89.2813 48.0816 87.4196 43.2497 83.6126C39.2126 80.4332 36.577 75.413 36.3887 70.5183C36.2214 66.5648 36.6816 63.1553 37.7484 60.1432C39.5473 55.0811 43.3752 50.7093 48.2699 48.1156C53.1437 45.5218 59.0634 44.7269 64.5019 45.9192C71.1955 47.3835 77.1152 52.8848 79.96 60.2477C82.5747 67.025 81.5707 74.8482 77.3662 80.6424C73.3082 86.2064 66.4054 89.6578 59.4399 89.6578V89.6787ZM59.4399 47.4462C55.8839 47.4462 52.3279 48.3038 49.2321 49.9354C44.7976 52.2991 41.3044 56.2525 39.6937 60.8334C38.7106 63.5946 38.2922 66.7531 38.4596 70.4346C38.6269 74.7227 40.9697 79.1572 44.5466 81.9811C49.023 85.5161 53.2483 87.2314 58.2476 87.5661C64.9412 88.0053 71.7812 84.8049 75.6928 79.4291C79.4998 74.1997 80.3993 67.1296 78.0356 61.0008C75.4836 54.3699 70.0033 49.2451 64.0836 47.9482C62.5775 47.6135 61.0087 47.4462 59.4608 47.4462H59.4399Z" fill="black"/>
<path d="M60.4021 66.7322C60.1092 66.7322 59.8373 66.6067 59.6281 66.3766C59.2516 65.9583 59.2935 65.2889 59.7118 64.9124C81.7798 45.2708 104.998 26.4032 128.761 8.85338C129.221 8.5187 129.869 8.60237 130.204 9.06255C130.539 9.52274 130.455 10.1712 129.995 10.5059C106.295 28.0139 83.1185 46.8396 61.0923 66.4394C60.9041 66.6067 60.6531 66.7113 60.4021 66.7113V66.7322Z" fill="black"/>
<path d="M31.243 90.4945C31.1175 90.4945 30.992 90.4317 30.9292 90.3062C27.8335 84.1774 25.1142 77.7975 22.876 71.3131C22.8132 71.1248 22.9178 70.9366 23.0852 70.8738C23.2734 70.8111 23.4617 70.9157 23.5244 71.083C25.7626 77.5256 28.461 83.8845 31.5359 89.9925C31.6195 90.1598 31.5358 90.369 31.3894 90.4526C31.3476 90.4736 31.2848 90.4945 31.243 90.4945V90.4945Z" fill="black"/>
<path d="M41.9737 101.539C41.8482 101.539 41.7227 101.476 41.6599 101.351C34.5898 87.9635 28.5865 73.9069 23.7754 59.5366C23.7127 59.3483 23.8173 59.1601 23.9846 59.0973C24.1729 59.0346 24.3611 59.1391 24.4239 59.3065C29.214 73.635 35.1964 87.6498 42.2665 101.016C42.3502 101.183 42.2875 101.393 42.1201 101.476C42.0783 101.497 42.0155 101.518 41.9528 101.518L41.9737 101.539Z" fill="black"/>
<path d="M47.4122 102.94C47.2867 102.94 47.1612 102.857 47.0985 102.731C39.9028 86.5621 33.1465 69.9535 27.0176 53.345C26.9549 53.1567 27.0385 52.9685 27.2268 52.9057C27.415 52.843 27.6033 52.9266 27.6661 53.1149C33.7949 69.7025 40.5513 86.2901 47.726 102.459C47.8096 102.627 47.726 102.836 47.5587 102.92C47.5168 102.92 47.475 102.94 47.4122 102.94V102.94Z" fill="black"/>
<path d="M35.2801 58.8254C35.1545 58.8254 35.0291 58.7417 34.9663 58.6162C33.1046 54.5373 31.3685 50.3119 29.8415 46.0866C29.7787 45.8983 29.8624 45.7101 30.0507 45.6473C30.2389 45.5846 30.4272 45.6682 30.4899 45.8565C32.0169 50.0609 33.7322 54.2654 35.5938 58.3443C35.6775 58.5116 35.5938 58.7208 35.4265 58.8045C35.3847 58.8254 35.3219 58.8254 35.2801 58.8254V58.8254Z" fill="black"/>
<path d="M39.0035 53.1776C38.8779 53.1776 38.7315 53.0939 38.6897 52.9684L33.8578 41.4847C33.7741 41.3173 33.8577 41.1082 34.046 41.0245C34.2133 40.9408 34.4225 41.0245 34.5062 41.2127L39.3381 52.6965C39.4218 52.8638 39.3381 53.073 39.1499 53.1567C39.1081 53.1567 39.0662 53.1776 39.0244 53.1776H39.0035Z" fill="black"/>
<path d="M42.8313 47.5508C42.7058 47.5508 42.5594 47.4671 42.5175 47.3416L38.334 37.343C38.2504 37.1757 38.334 36.9665 38.5223 36.8828C38.6896 36.8201 38.8988 36.8828 38.9825 37.0711L43.166 47.0697C43.2497 47.237 43.166 47.4462 42.9777 47.5299C42.9359 47.5299 42.8941 47.5508 42.8522 47.5508H42.8313Z" fill="black"/>
<path d="M48.9183 44.204C48.7928 44.204 48.6673 44.1203 48.6046 43.9948C47.1612 40.7107 45.8643 37.3012 44.7557 33.8916C44.6929 33.7034 44.7975 33.5151 44.9858 33.4523C45.1741 33.3896 45.3623 33.4942 45.4251 33.6824C46.5337 37.0711 47.8306 40.4597 49.253 43.7229C49.3367 43.8902 49.253 44.0994 49.0647 44.1831C49.0229 44.1831 48.9811 44.204 48.9183 44.204V44.204Z" fill="black"/>
<path d="M54.7543 42.0914C54.6288 42.0914 54.4824 42.0077 54.4405 41.8822C53.1018 38.7027 51.9513 35.3977 51.031 32.0509C50.9891 31.8627 51.0937 31.6744 51.261 31.6326C51.4493 31.5907 51.6376 31.6953 51.6794 31.8627C52.5998 35.1676 53.7293 38.4517 55.0681 41.6102C55.1517 41.7776 55.0681 41.9868 54.8798 42.0704C54.838 42.0704 54.7961 42.0914 54.7543 42.0914Z" fill="black"/>
<path d="M61.1969 42.3005C61.0505 42.3005 60.904 42.1959 60.8622 42.0495L57.7246 31.277C57.6618 31.0887 57.7664 30.9004 57.9547 30.8586C58.1429 30.7959 58.3312 30.9004 58.373 31.0887L61.5107 41.8612C61.5734 42.0495 61.4688 42.2377 61.2806 42.2796C61.2387 42.2796 61.2178 42.2796 61.176 42.2796L61.1969 42.3005Z" fill="black"/>
<path d="M68.2879 45.5009C68.1415 45.5009 68.016 45.4172 67.9533 45.2708L63.8325 32.3647C63.7698 32.1764 63.8743 31.9882 64.0626 31.9254C64.2509 31.8627 64.4391 31.9673 64.5019 32.1555L68.6226 45.0616C68.6854 45.2499 68.5808 45.4382 68.3925 45.5009C68.3507 45.5009 68.3298 45.5009 68.2879 45.5009Z" fill="black"/>
<path d="M76.4667 48.6176C76.3202 48.6176 76.1948 48.5339 76.1529 48.3875L70.5888 33.5779C70.5261 33.3896 70.6097 33.2013 70.798 33.1386C70.9653 33.0758 71.1745 33.1595 71.2373 33.3478L76.8014 48.1574C76.8641 48.3456 76.7804 48.5339 76.5922 48.5966C76.5503 48.5966 76.5085 48.6176 76.4667 48.6176Z" fill="black"/>
<path d="M54.7125 105.137C54.587 105.137 54.4824 105.074 54.4197 104.949C51.9096 100.43 49.7132 95.6612 47.9143 90.8083C47.8516 90.6201 47.9352 90.4318 48.1235 90.369C48.3117 90.3063 48.5 90.39 48.5628 90.5782C50.3617 95.3893 52.5371 100.117 55.0263 104.614C55.1099 104.781 55.0681 104.99 54.9008 105.074C54.838 105.095 54.7962 105.116 54.7334 105.116L54.7125 105.137Z" fill="black"/>
<path d="M60.2138 104.865C60.0883 104.865 59.9837 104.802 59.9209 104.698C57.4317 100.702 55.3609 96.4561 53.7502 92.0425C53.6875 91.8542 53.7712 91.6659 53.9594 91.6032C54.1477 91.5404 54.3359 91.6241 54.3987 91.8124C55.9884 96.1841 58.0383 100.409 60.5066 104.342C60.6112 104.509 60.5485 104.718 60.402 104.823C60.3393 104.865 60.2765 104.865 60.2138 104.865Z" fill="black"/>
<path d="M65.6106 104.07C65.485 104.07 65.3596 104.007 65.2968 103.882C63.4142 100.117 61.6571 96.2469 60.0883 92.3562C60.0256 92.1889 60.0883 91.9797 60.2766 91.896C60.4439 91.8333 60.6531 91.8961 60.7368 92.0843C62.3056 95.9541 64.0418 99.8238 65.9243 103.568C66.008 103.735 65.9243 103.945 65.7779 104.028C65.7361 104.049 65.6733 104.07 65.6315 104.07H65.6106Z" fill="black"/>
<path d="M79.688 42.9071C79.5416 42.9071 79.4161 42.8234 79.3534 42.677L77.157 36.4645C77.0943 36.2762 77.1779 36.088 77.3662 36.0252C77.5545 35.9625 77.7427 36.0462 77.8055 36.2344L80.0018 42.4469C80.0646 42.6352 79.9809 42.8234 79.7926 42.8862C79.7508 42.8862 79.7089 42.8862 79.688 42.8862V42.9071Z" fill="black"/>
<path d="M94.7068 76.3124C94.5813 76.3124 94.4558 76.2287 94.3931 76.1032C90.5233 67.7571 86.8209 59.2019 83.3904 50.6675C83.3277 50.5002 83.3904 50.291 83.5787 50.2282C83.746 50.1655 83.9552 50.2282 84.018 50.4165C87.4485 58.9299 91.1509 67.4852 94.9997 75.8104C95.0834 75.9777 94.9997 76.1869 94.8323 76.2706C94.7905 76.2915 94.7278 76.3124 94.6859 76.3124H94.7068Z" fill="black"/>
<path d="M95.418 64.2012C95.2925 64.2012 95.167 64.1384 95.1042 64.0129C92.2176 58.6371 89.5402 53.0731 87.1137 47.4672C87.0301 47.2998 87.1138 47.0906 87.302 47.007C87.4694 46.9233 87.6785 47.007 87.7622 47.1952C90.1677 52.7802 92.8452 58.3234 95.7318 63.6783C95.8154 63.8456 95.7527 64.0548 95.5853 64.1384C95.5435 64.1594 95.4807 64.1803 95.418 64.1803V64.2012Z" fill="black"/>
<path d="M92.4268 84.0728C92.3013 84.0728 92.1758 83.9891 92.113 83.8636L79.3952 54.5581C79.3115 54.3908 79.3952 54.1816 79.5834 54.098C79.7508 54.0143 79.96 54.098 80.0436 54.2862L92.7615 83.5917C92.8451 83.759 92.7615 83.9682 92.5732 84.0519C92.5314 84.0519 92.4896 84.0728 92.4268 84.0728V84.0728Z" fill="black"/>
<path d="M89.4356 89.4904C89.3101 89.4904 89.1846 89.4068 89.1219 89.2813L82.7211 75.3293C82.6374 75.1619 82.7211 74.9528 82.8885 74.8691C83.0558 74.7854 83.2649 74.8691 83.3486 75.0364L89.7494 88.9884C89.8331 89.1558 89.7494 89.3649 89.5821 89.4486C89.5402 89.4695 89.4775 89.4904 89.4356 89.4904Z" fill="black"/>
<path d="M85.3776 93.5485C85.2521 93.5485 85.1266 93.4649 85.0638 93.3394L79.5416 81.3954C79.4579 81.2281 79.5416 81.0189 79.7089 80.9353C79.8763 80.8516 80.0854 80.9353 80.1691 81.1026L85.6913 93.0465C85.775 93.2139 85.6913 93.423 85.524 93.5067C85.4822 93.5276 85.4194 93.5485 85.3776 93.5485Z" fill="black"/>
<path d="M81.1941 96.8535C81.0686 96.8535 80.9431 96.7698 80.8803 96.6443L76.2157 86.562C76.1321 86.3947 76.2157 86.1855 76.3831 86.1019C76.5504 86.0182 76.7596 86.1019 76.8433 86.2692L81.5079 96.3515C81.5916 96.5188 81.5079 96.728 81.3405 96.8116C81.2987 96.8326 81.2359 96.8535 81.1941 96.8535Z" fill="black"/>
<path d="M76.6341 99.9492C76.5086 99.9492 76.3831 99.8656 76.3204 99.7401L71.6348 89.6578C71.5511 89.4905 71.6348 89.2813 71.8022 89.1976C71.9695 89.1139 72.1787 89.1976 72.2623 89.365L76.9479 99.4472C77.0315 99.6146 76.9479 99.8237 76.7805 99.9074C76.7387 99.9283 76.6759 99.9492 76.6341 99.9492Z" fill="black"/>
<path d="M71.1327 103.401C71.0072 103.401 70.8817 103.317 70.819 103.191L66.0707 92.8791C65.987 92.7118 66.0707 92.5026 66.238 92.4189C66.4054 92.3353 66.6146 92.4189 66.6982 92.5863L71.4465 102.899C71.5302 103.066 71.4465 103.275 71.2792 103.359C71.2373 103.38 71.1746 103.401 71.1327 103.401Z" fill="black"/>
<g opacity="0.13">
<path d="M119.641 20.2325C118.657 18.7264 117.13 19.1866 115.98 20.2325C114.913 21.0274 113.867 21.8222 112.78 22.5962C108.115 26.0476 103.388 29.0597 99.9153 32.0927C98.6602 33.6197 100.585 35.7952 102.279 34.7702C106.462 31.5071 110.876 28.5786 115.206 25.5246C116.356 24.7507 117.465 23.9349 118.595 23.1609C119.682 22.6589 120.331 21.3202 119.661 20.2325H119.641Z" fill="black"/>
</g>
<g opacity="0.13">
<path d="M77.0106 65.3307C77.0734 64.9542 77.0525 64.9542 77.0106 65.3307V65.3307Z" fill="black"/>
</g>
<g opacity="0.13">
<path d="M53.7921 82.755C53.7921 82.755 53.9406 82.7763 54.0042 82.7975C53.983 82.7975 53.877 82.7762 53.7921 82.755Z" fill="black"/>
</g>
<g opacity="0.13">
<path d="M81.3824 65.1006C81.3196 64.0757 81.466 62.8625 80.8176 62.0258C80.211 61.1263 78.7886 60.959 77.9937 61.6702C76.8014 62.5278 77.2825 64.2221 77.0106 65.4772C77.0106 65.4353 77.0106 65.3726 77.0106 65.3307C77.0106 65.3726 77.0106 65.4144 76.9897 65.4772C76.7596 66.795 76.4458 68.1128 75.9857 69.3678C75.0653 71.857 72.6807 75.6012 70.2333 77.8394C67.3467 80.1822 65.0039 81.3327 60.9668 82.525C58.4986 83.2152 55.9048 83.1316 53.7084 82.755C53.7503 82.755 53.7712 82.755 53.813 82.755C49.1903 82.1066 47.2449 81.0816 44.6302 78.6552C42.8104 76.919 40.1748 79.5337 41.911 81.3745C45.7179 85.2652 51.0938 87.1059 56.4277 87.6079C57.4736 87.6497 58.4776 87.6079 59.4608 87.5033C59.4608 87.6916 59.4608 87.9008 59.4817 88.1518C60.3393 90.0344 61.427 89.365 62.6612 89.1976C64.3346 88.8421 63.728 88.9885 65.6942 88.5492C69.0201 87.9217 71.6766 85.6835 74.0403 83.4035C77.0943 80.5169 79.2279 76.8563 80.4829 72.8611C81.2778 70.3719 81.4033 67.7153 81.3614 65.1216L81.3824 65.1006Z" fill="black"/>
</g>
<g opacity="0.13">
<path d="M56.0936 108.149C56.0936 108.149 56.0724 108.149 56.0512 108.149C56.1148 108.149 56.1572 108.17 56.0936 108.149Z" fill="black"/>
</g>
<g opacity="0.13">
<path d="M98.221 65.77C98.1373 64.6405 98.0118 63.5109 97.7817 62.4232C97.698 61.7329 97.4261 61.0217 96.7777 60.6871C95.3762 59.8085 93.4727 61.2518 93.9538 62.8416C94.4558 65.1634 94.414 68.2801 93.9538 70.4974C93.3053 73.656 92.0921 76.6472 90.9835 79.6384C90.7534 80.2241 90.5024 80.8098 90.2723 81.3954C89.8958 82.0439 90.1468 81.9393 89.6448 82.8178C88.7453 84.7632 87.7413 86.6667 86.5281 88.4446C83.9761 92.3562 78.9141 97.2091 75.9019 99.259C73.1199 101.33 73.5801 100.43 71.0281 101.916C71.3001 101.769 71.5511 101.602 71.823 101.455C71.4047 101.602 71.0072 101.748 70.5889 101.895C67.0957 103.233 63.5188 104.405 59.8373 105.011C59.6909 105.011 59.5863 105.053 59.5026 105.053C59.3771 105.053 59.2516 105.074 59.1261 105.095C57.9965 105.158 56.8461 105.158 55.7165 105.095C55.2563 105.074 54.7752 105.032 54.315 104.97C53.9804 104.928 53.6457 104.97 53.3738 105.137C52.307 105.702 52.558 107.459 53.7503 107.689C54.4405 107.835 55.1308 107.961 55.8211 108.065C55.8211 108.065 55.8211 108.065 55.8002 108.065C55.8211 108.065 55.8629 108.065 55.8839 108.065C55.9466 108.065 56.0094 108.086 56.0721 108.086C56.0512 108.086 56.0094 108.086 55.9885 108.086C58.8123 108.505 61.6571 108.086 64.4182 107.396C67.2212 106.852 69.8986 105.848 72.6179 105.011C73.0572 104.886 72.4924 105.011 72.3251 105.011C73.4337 104.886 74.5423 104.467 75.5673 104.07C81.4869 101.225 86.6117 96.7071 90.4606 91.4149C91.8202 89.637 92.8661 87.6289 93.7864 85.5999C94.1839 84.554 94.8742 83.5499 94.9578 82.4204C94.9369 82.6296 94.8951 82.8597 94.8742 83.0688C96.0455 79.8475 97.2797 76.6053 97.8235 73.2167C97.8026 73.4049 97.7608 73.6141 97.7399 73.8024C98.2419 71.1458 98.5766 68.4266 98.2419 65.7491L98.221 65.77Z" fill="black"/>
</g>
<g opacity="0.13">
<path d="M117.089 65.268C117.089 64.8078 116.9 64.3476 116.566 64.0338C115.52 62.9461 113.512 63.7619 113.574 65.268C113.721 69.9117 113.114 72.61 111.692 77.442C110.228 82.4622 109.265 85.0141 107.236 88.9466C105.647 91.896 104.266 94.95 102.572 97.8366C98.8066 103.484 98.4929 103.819 95.1042 107.793C89.9376 113.044 86.1306 116.725 80.3574 118.608C74.9816 120.804 70.0032 122.875 63.3305 123.733C63.1422 123.733 62.7448 123.816 62.6611 123.837C62.5565 123.837 62.0963 123.921 61.8244 123.963C61.4479 123.984 61.0923 124.109 60.8204 124.381C59.9 125.239 60.5903 126.933 61.8663 126.891C64.0417 126.828 66.2171 126.619 68.3716 126.201C72.1995 125.469 75.9437 124.297 79.5625 122.854C82.0517 121.975 84.6036 121.222 86.9255 119.946C90.9416 117.687 92.3222 116.286 95.5435 113.274C96.945 112.04 98.2419 110.701 99.476 109.299C99.7898 110.262 101.149 110.701 101.902 109.885C105.835 105.869 108.847 101.016 111.294 95.9958C112.445 93.5485 113.491 91.0175 114.16 88.4028C114.286 87.4615 114.85 86.4156 114.369 85.4952C114.265 85.307 114.139 85.1815 113.993 85.056C115.854 79.7638 116.817 74.4089 117.13 69.4306C117.214 68.05 117.193 66.6485 117.13 65.268H117.089Z" fill="black"/>
</g>
</svg>
